
<svg xmlns="http://www.w3.org/2000/svg" class="icon" viewBox="0 0 1042 1024"><path fill="#2ad536" d="M112.768 940.148c-45.202-45.201-32.018-139.371 26.367-252.376 35.785 99.82 105.47 184.574 195.874 239.193-99.82 45.201-182.69 52.735-222.241 13.183zm839.998-839.997c35.784 35.784 33.9 99.82 3.766 182.69-50.852-79.103-126.188-139.372-214.708-175.157 94.17-41.435 171.39-47.085 210.942-7.533zM378.327 463.647c5.65-101.703 90.404-182.69 193.991-182.69s188.34 80.987 193.99 182.69h-387.98zM783.26 586.07h246.726c1.883-16.951 1.883-33.902 1.883-52.736 0-84.753-22.6-161.972-62.152-229.775 41.435-107.354 39.552-199.64-15.067-254.26C903.797-3.436 764.425 5.98 608.103 75.667c-11.3 0-22.601-1.883-35.785-1.883-214.708 0-395.515 148.789-446.367 348.43 67.803-86.637 139.372-148.79 233.542-193.991-9.417 7.534-58.385 58.385-67.802 65.92C41.198 544.633-37.905 870.461 46.848 955.215c64.036 64.035 180.807 52.735 316.412-11.3 62.153 32.017 133.722 48.968 209.058 48.968 201.524 0 372.914-129.955 435.066-310.762h-248.61c-33.9 64.036-101.703 105.47-178.922 105.47s-143.14-43.317-178.924-105.47c-15.067-28.25-24.484-62.152-24.484-96.053h406.815z" class="selected" data-spm-anchor-id="a313x.7781069.0.i1"/></svg>