<?xml version="1.0" encoding="utf-8"?>
<!-- Generator: Adobe Illustrator 26.0.2, SVG Export Plug-In . SVG Version: 6.00 Build 0)  -->
<svg version="1.1" id="图层_1" xmlns="http://www.w3.org/2000/svg" xmlns:xlink="http://www.w3.org/1999/xlink" x="0px" y="0px"
	 viewBox="0 0 1024 1024" style="enable-background:new 0 0 1024 1024;" xml:space="preserve">
<style type="text/css">
	.st0{fill:#666666;}
</style>
<path class="st0" d="M924.1,770.2c-41.2,0-72.7-27.4-72.7-63.3V453.5c0-35.9,31.5-63.3,72.7-63.3c41.2,0,72.7,27.4,72.7,63.3v253.3
	C996.8,742.7,965.3,770.2,924.1,770.2z M705.9,812.4v147.8c0,35.9-31.5,63.3-72.7,63.3s-72.7-27.4-72.7-63.3V812.4h-97v147.8
	c0,35.9-31.5,63.3-72.7,63.3s-72.7-27.4-72.7-63.3V812.4c-53.3,0-97-38-97-84.4V432.4c0-23.2,21.8-42.2,48.5-42.2h484.8
	c26.7,0,48.5,19,48.5,42.2V728C802.9,774.4,759.2,812.4,705.9,812.4z M802.9,348H221.1c0-84.4,46.1-158.3,118.8-204.8L272,41.9
	c0-4.2-2.4-6.3-2.4-10.6c0-12.7,9.7-21.1,24.2-21.1c9.7,0,17,4.2,21.8,10.6l65.4,101.3c38.8-16.9,84.8-27.4,130.9-27.4
	s92.1,10.6,130.9,27.4l65.4-101.3c4.8-6.3,12.1-10.6,21.8-10.6c14.5,0,24.2,8.4,24.2,21.1c0,4.2-2.4,6.3-2.4,10.6l-67.9,101.3
	C756.8,189.6,802.9,263.5,802.9,348z M99.9,770.2c-41.2,0-72.7-27.4-72.7-63.3V453.5c0-35.9,31.5-63.3,72.7-63.3
	s72.7,27.4,72.7,63.3v253.3C172.7,742.7,141.2,770.2,99.9,770.2z"/>
</svg>
