
<svg xmlns="http://www.w3.org/2000/svg" viewBox="0 0 1024 1024" xmlns:v="https://vecta.io/nano"><linearGradient id="A" gradientUnits="userSpaceOnUse" x1="77.689" y1="513.693" x2="948.31" y2="513.693"><stop offset="0" stop-color="#f50"/><stop offset="1" stop-color="#ff2000"/></linearGradient><path d="M948.3 329.6l-31.5-85.8 21.9-49.3c2.8-6.3 1.5-13.8-3.4-18.7l-59.6-60.4c-26-26.4-64.9-35.5-99.9-23.3l-16.6 5.8-87-93.4H352.4l-85.9 94.6-16.2-5.7c-35.3-12.5-74.7-3.3-100.9 23.5l-60.6 61.6c-3.9 3.9-5 9.9-2.7 14.9l22.9 51.2-31.4 85.8L98 407.6l92.4 352.5a179.14 179.14 0 0 0 69.3 100.6s112.2 79.4 222.9 151.5c9.7 6.4 19.9 11 30.8 10.8 10.9.1 21.1-4.5 30.8-10.8C668.6 930.4 767 860.4 767 860.4c34.1-24.5 58.6-60.1 69.2-100.7l92-352.6c-.1 0 20.1-77.5 20.1-77.5z" fill-rule="evenodd" fill="url(#A)"/><linearGradient id="B" gradientUnits="userSpaceOnUse" x1="151.675" y1="94.903" x2="877.706" y2="94.903"><stop offset="0" stop-color="#fa3f2e"/><stop offset=".461" stop-color="#ff2000"/></linearGradient><path d="M352.7 4.6L268 100.3l-7-4.8c-56.3-17.5-80.8-5.6-117.2 28.1l-8 8.7 44.4-8.7c12.3 0 46.5 1.2 53.7 3.6 30.3 10.4 38.7 22.6 58.1 35.4l9.3 3.1 90.5 18.2c5.7 1.1 11.5.8 17.1-.8l42.5-14c38.5-14.9 80.4-15.6 124.1 0l41.7 14.1c6.4 2 13.2 2.5 19.8 1.2l7.5-1.4 91.4-20.4 1.5-3.7 6.3-5.1c38.9-28.3 69.9-42 129.5-36.2h4.6L875 114c-49.8-39.6-80.1-27.7-108.1-18.5l-7.6 2.6-86.6-93.5h-320z" fill-rule="evenodd" fill="url(#B)"/><linearGradient id="C" gradientUnits="userSpaceOnUse" x1="512.01" y1="480.514" x2="828.131" y2="480.514"><stop offset="0" stop-color="#fff"/><stop offset="1" stop-color="#f4f4f4"/></linearGradient><path d="M543.6 639.1l12.1 5c13 5.4 34 15.1 46.6 21.5l35.7 18.2c12.6 6.4 13.5 18.4 2 26.6l-30.4 21.8c-13.8 10-27.2 20.6-40.1 31.8l-38.4 33.6c-10.5 9.2-27.6 9.3-38 .1L455 764.4c-13-11-26.4-21.5-40.2-31.5l-30.3-21.5c-11.5-8.2-10.7-20.2 1.8-26.7l35.9-18.7c15.2-7.8 30.7-15.1 46.4-21.7l12.1-5c13-5.4 24.7-9.9 26-9.9h11c1.2-.1 12.9 4.3 25.9 9.7h0zm304.9-287.8l-2.3 8.2c-6.1 7.7-19 22.3-28.7 32.6l-88.8 94.7c-9.7 10.3-15.1 23.2-9.6 36.2l12 29.6c5.5 13 6 34.5.8 49-5.4 14.7-14.6 27.7-26.7 37.6l-9.3 7.6c-10.9 8.9-30.3 11.3-43.1 5.2l-40.9-19.5c-12.7-6.1-31.7-18.8-42.2-28.2L531 569.5c-7.4-6.7-8-18.1-1.3-25.5.1-.1.2-.3.4-.4l94.3-63.8c11.7-7.9 17.9-22.5 11.2-35L602 383.7c-6.6-12.5-9.3-29.1-5.9-36.8 3.4-7.8 17-18.3 30.2-23.3l109.4-40.8c13.2-5 12.5-10.2-1.6-11.5l-69.9-5.2c-14.1-1.3-24.4.7-37.9 4.5l-52.9 13.1c-13.6 3.8-16.5 18.3-13.9 32.2l21.8 118.7c2.6 13.9 3.8 27.9 2.8 31.1s-13.1 8.4-26.9 11.5l-18.1 4.1c-13.8 3.1-36.3 3.3-50.1.3l-21.9-4.7c-13.8-3-25.9-8-27-11.2-1-3.2.2-17.2 2.8-31.1L464.6 316c2.5-13.9-.3-28.4-13.9-32.2l-52.9-13.1c-13.6-3.8-23.9-5.8-37.9-4.5l-69.9 5.3c-14.1 1.3-14.7 6.5-1.6 11.5l109.5 40.6c13.2 5 26.8 15.5 30.2 23.2 3.4 7.8.8 24.3-5.9 36.8l-33.5 61.2c-6.6 12.5-.4 27.1 11.3 35l94.4 63.7c6.9 7.2 6.6 18.6-.5 25.5l-.4.4-38.7 35c-10.5 9.5-29.5 22.2-42.2 28.3l-40.9 19.5c-12.7 6.1-32.1 3.8-43-5.2l-9.3-7.6c-12.1-9.9-21.4-22.9-27.2-38.7-4.9-13.3-4.4-34.8 1.1-47.8l12-29.6c5.5-13 0-25.9-9.7-36.2l-88.9-94.6c-9.7-10.3-22.6-25-28.7-32.6l-2.3-8.3-1.4-4.6c-.1-5.3 1.8-22.2 3.9-26.7s10.4-17.9 18.3-29.6l19-28.2c9.7-14.1 19.8-27.9 30.4-41.4l27.9-35.1c8.8-11 16.3-20 17.4-20 .1-.1 11.4 2.1 25.3 4.7l42.3 8.1 34 6.5c4.8.9 19.8-1.9 33.2-6.3l30.4-9.9c13.4-4.4 33.8-10.1 45.3-12.8l10.6.2 10.6-.2c11.5 2.7 31.8 8.4 45.3 12.7l30.4 9.8c13.4 4.3 28.4 7.1 33.2 6.2l34-6.6 42.2-8.2 26.1-4.7c.4-.1 7.9 8.9 16.7 20l27.9 35c10.6 13.5 20.7 27.2 30.4 41.4l19.1 28.2c7.9 11.7 20.3 33 21.1 37.8s1.3 13.1 1.2 18.4l-2 5h0z" fill-rule="evenodd" fill="url(#C)"/></svg>