
<svg xmlns="http://www.w3.org/2000/svg" viewBox="0 0 1024 1024"><path fill="#4285f4" d="M943.19 235.79L694.16 387.94c-39.64-58.35-106.35-96.44-182.09-96.44-121.54 0-220.18 98.42-220.18 220.18 0 121.54 98.64 220.19 220.18 220.19 72 0 136.07-34.79 176.15-88.3l249.69 152.15c-91.6 137.4-248.15 227.89-425.84 227.89C229.35 1023.61.14 794.39.14 511.68.13 228.74 229.35-.25 512.07-.25c181.21 0 340.19 94.02 431.12 236.04z"/><path fill="#34a853" d="M512.07 335.53c97.32 0 176.15 78.83 176.15 176.15 0 97.1-78.82 176.15-176.15 176.15s-176.15-79.05-176.15-176.15c0-97.32 78.83-176.15 176.15-176.15z"/><path fill="#fbbc05" d="M968.95 280.49c35.01 69.58 55.05 147.96 55.05 231.2 0 88.29-22.46 171.53-61.87 244.18L714.64 598.21h-.22a218.018 218.018 0 0 0 17.84-86.53c0-27.96-5.28-54.83-14.75-79.27l251.44-151.92z"/></svg>