
<svg xmlns="http://www.w3.org/2000/svg" viewBox="0 0 1024 1024"><path fill="#F44336" d="M986.452 320.028H512.019c-106.033-.104-192.075 85.768-192.181 191.801a191.99 191.99 0 0 0 24.509 94.052L107.13 198.859C279.91-24.76 601.255-65.975 824.875 106.804a511.677 511.677 0 0 1 161.577 213.224z"/><path fill="#FFC107" d="M1023.996 512.02c-.236 282.658-229.318 511.74-511.977 511.976a456.643 456.643 0 0 1-63.997-4.266l230.39-411.715c52.803-91.924 21.326-209.24-70.397-262.388a190.203 190.203 0 0 0-95.57-25.6H986.45a504.795 504.795 0 0 1 37.546 191.992z"/><path fill="#4CAF50" d="M678.411 608.015l-230.39 411.715h-.425C167.233 984.308-31.33 728.311 4.092 447.948a511.683 511.683 0 0 1 103.04-249.089l237.215 407.022 1.28 2.134c52.9 91.896 170.278 123.508 262.174 70.61a191.975 191.975 0 0 0 70.61-70.61z"/><path fill="#F44336" d="M678.411 608.015c-52.9 91.896-170.278 123.508-262.174 70.61a192.005 192.005 0 0 1-70.61-70.61l-1.28-2.134c-51.84-92.498-18.878-209.507 73.62-261.346a192 192 0 0 1 94.052-24.51h.426a190.203 190.203 0 0 1 95.57 25.6c91.725 53.15 123.2 170.466 70.396 262.39z"/><path fill="#2196F3" d="M678.411 608.015c-52.9 91.896-170.278 123.508-262.174 70.61a192.005 192.005 0 0 1-70.61-70.61l-1.28-2.134c-51.84-92.498-18.878-209.507 73.62-261.346a192 192 0 0 1 94.052-24.51h.426a190.203 190.203 0 0 1 95.57 25.6c91.725 53.15 123.2 170.466 70.396 262.39z"/><path fill="#FAFAFA" d="M511.295 725.344a211.788 211.788 0 0 1-105.937-28.415 214.11 214.11 0 0 1-78.205-78.247c-58.907-102.031-23.949-232.497 78.083-291.404a213.346 213.346 0 0 1 106.785-28.581c117.815-.092 213.398 95.344 213.488 213.158a213.316 213.316 0 0 1-28.58 106.827 214.52 214.52 0 0 1-185.634 106.662zm1.108-383.983a170.19 170.19 0 0 0-148.431 85.33c-47.126 81.716-19.085 186.166 62.63 233.291s186.166 19.086 233.292-62.63c47.126-81.625 19.16-185.998-62.465-233.126a170.666 170.666 0 0 0-84.984-22.863h-.042z"/></svg>