
<svg xmlns="http://www.w3.org/2000/svg" viewBox="0 0 1024 1024"><path fill="#13227a" d="M239.232 192.128L649.28 192c19.072 0 25.92 1.92 32.896 5.696a38.784 38.784 0 0 1 16.128 16.128C702.016 220.8 704 227.648 704 246.72v402.56c0 19.072-1.92 25.92-5.696 32.896a38.784 38.784 0 0 1-16.128 16.128C675.2 702.016 668.352 704 649.28 704H246.72c-19.072 0-25.92-1.92-32.896-5.696a38.784 38.784 0 0 1-16.128-16.128c-3.2-5.952-5.12-11.904-5.568-25.408L192 246.72c0-19.072 1.92-25.92 5.696-32.896a38.784 38.784 0 0 1 16.128-16.128c5.952-3.2 11.904-5.12 25.408-5.568zM640 256H256v384h384V256z"/><path fill="#13227a" d="M374.72 384h402.56c19.072 0 25.92 1.92 32.896 5.696a38.784 38.784 0 0 1 16.128 16.128C830.016 412.8 832 419.648 832 438.72v402.56c0 19.072-1.92 25.92-5.696 32.896a38.784 38.784 0 0 1-16.128 16.128C803.2 894.016 796.352 896 777.28 896H374.72c-19.072 0-25.92-1.92-32.896-5.696a38.784 38.784 0 0 1-16.128-16.128C321.984 867.2 320 860.352 320 841.28V438.72c0-19.072 1.92-25.92 5.696-32.896a38.784 38.784 0 0 1 16.128-16.128C348.8 385.984 355.648 384 374.72 384z"/></svg>