
<svg xmlns="http://www.w3.org/2000/svg" class="svg" viewBox="0 0 1024 1024"><path fill="#da5961" d="M458.88 65h104.69c2.62.57 5.22 1.5 7.87 1.67 82.89 5.36 163.63 20.58 242.14 48.54 36.4 12.96 63.85 32.49 73.43 71.67v396.88h-99.08c.24-1.47.24-2.26.49-2.94 19.24-52.77 5.31-101.08-37.07-128.51-43.49-28.15-95.9-21.54-135.46 18.42-34.02 34.35-66.95 69.78-104.02 108.55-38.36-40.13-72.62-77.19-108.21-112.9-41.21-41.35-106.25-41.9-146.64-1.23-33.72 33.95-38.91 74.16-20.54 118.62h-99.46V185.33c8.5-24.89 19.43-49.8 46.19-58.01C243.84 108.7 305 91.4 366.65 76.5c29.92-7.23 61.43-7.87 92.23-11.5zM137 965V640h311.15c-65.09 53.78-125.49 103.69-186.47 154.07 10.51 13.79 21.63 28.38 34.79 45.65 73.17-62.01 145.51-123.32 215.46-182.61 70.51 59.71 142.87 120.97 215.65 182.59 13.35-17.55 24.35-32.01 34.71-45.64C701.32 743.7 640.91 693.79 575.8 640H887v325c-11.32 30.25-34.49 36.62-64.53 36.5-206.71-.81-413.43-.8-620.14-.01-30.14.12-53.86-5.79-65.33-36.49z"/><path fill="#da5961" d="M434.27 583.73c-32.68 0-71.72 1.13-110.64-.46-20.52-.84-34.46-14.27-39.67-34.38-5.47-21.12 2.32-38.26 20.3-49.74 17.68-11.29 38.01-12.42 52.98 2.06 27.99 27.05 53.34 56.84 77.03 82.52zm152.58.22c24.85-26.26 50.05-54.77 77.4-81.07 16.05-15.43 36.72-15.7 55.6-3.65 18.6 11.88 26.33 29.87 19.74 51.28-6.66 21.64-22.6 33.21-45.59 33.36-36.88.26-73.77.08-107.15.08z"/></svg>