<?xml version="1.0" standalone="no"?><!DOCTYPE svg PUBLIC "-//W3C//DTD SVG 1.1//EN" "http://www.w3.org/Graphics/SVG/1.1/DTD/svg11.dtd"><svg t="1658676305042" class="icon" viewBox="0 0 1024 1024" version="1.1" xmlns="http://www.w3.org/2000/svg" p-id="17149" xmlns:xlink="http://www.w3.org/1999/xlink" width="200" height="200"><defs><style type="text/css">@font-face { font-family: feedback-iconfont; src: url("//at.alicdn.com/t/font_1031158_u69w8yhxdu.woff2?t=1630033759944") format("woff2"), url("//at.alicdn.com/t/font_1031158_u69w8yhxdu.woff?t=1630033759944") format("woff"), url("//at.alicdn.com/t/font_1031158_u69w8yhxdu.ttf?t=1630033759944") format("truetype"); }
</style></defs><path d="M468.22912 724.24448a43.76576 43.76576 0 0 0 43.77088 43.77088 43.76064 43.76064 0 0 0 43.76576-43.77088 43.77088 43.77088 0 0 0-87.53664 0zM91.79648 132.10112v491.56096h27.3152V159.41632h785.78688v464.24576h27.3152V132.10112H91.79648zM512 123.34592c4.83328 0 8.76032-3.92192 8.76032-8.7552s-3.92704-8.7552-8.76032-8.7552a8.7552 8.7552 0 0 0 0 17.5104z" p-id="17150" fill="#3eaf7c"></path><path d="M932.20352 57.6H91.79648c-38.6816 0-70.03648 31.35488-70.03648 70.03648v631.6288c0 38.67648 31.35488 70.03136 70.03648 70.03136h307.13344c-21.29408 63.72864-60.32896 122.56256-132.04992 122.56256a17.5104 17.5104 0 1 0-0.02048 35.02592h490.26048a17.5104 17.5104 0 0 0 17.52064-17.50528 17.5104 17.5104 0 0 0-17.50016-17.52064h-0.02048c-71.72096 0-110.75584-58.8288-132.04992-122.56256h307.13344c38.67648 0 70.03648-31.35488 70.03648-70.03136V127.63648c0-38.6816-31.36-70.03648-70.03648-70.03648zM56.33536 127.63648a35.49184 35.49184 0 0 1 35.45088-35.45088h840.40704c19.54304 0 35.44576 15.90272 35.44576 35.45088v491.99616H56.33536V127.63648z m576.40448 797.312l20.59776 22.23104H375.77216l15.488-17.11104c22.65088-32.82944 34.33472-55.53152 48.15872-93.6448l2.2784-7.12192h140.59008l2.2784 7.1168c13.42464 41.83552 26.10688 64.14848 48.17408 88.52992z m334.91968-165.67296a35.4816 35.4816 0 0 1-35.44576 35.44576H91.79648a35.4816 35.4816 0 0 1-35.45088-35.44576v-105.48736h911.31392v105.48736z" p-id="17151" fill="#3eaf7c"></path></svg>