
<svg xmlns="http://www.w3.org/2000/svg" viewBox="0 0 1024 1024"><path fill="#7cba59" d="M972.8 377.24c-28.28 0-51.2 24.13-51.2 53.9 1.6 30.09-9.67 59.35-30.72 79.77-19.87 18.19-45.35 28.15-71.68 28.03-52.74 4.01-98.59-37.74-102.4-93.26-.33-4.84-.33-9.7 0-14.54-.02-29.77-22.95-53.88-51.23-53.86-28.25.02-51.15 24.12-51.17 53.86 2.61 56.79-39.01 105.05-92.95 107.79-3.15.16-6.3.16-9.45 0-52.74 4.01-98.59-37.74-102.4-93.26-.33-4.84-.33-9.7 0-14.54-.02-29.77-22.95-53.88-51.23-53.86-28.25.02-51.15 24.12-51.17 53.86 1.6 30.09-9.67 59.35-30.72 79.77-19.87 18.19-45.35 28.15-71.68 28.03-52.74 4.01-98.59-37.74-102.4-93.26-.33-4.84-.33-9.7 0-14.54 0-29.77-22.93-53.89-51.21-53.89C22.92 377.25 0 401.38 0 431.14V970.1c0 29.77 22.92 53.9 51.2 53.9h921.6c28.28 0 51.2-24.13 51.2-53.9V431.14c0-29.77-22.92-53.9-51.2-53.9z"/><path fill="#486675" d="M701.95 123.39c-19.91-21.13-52.33-21.27-72.41-.31-.1.1-.2.21-.3.31l-66.05 70.06V53.86C563.18 24.1 540.25-.02 511.97 0c-28.25.02-51.15 24.12-51.17 53.86v139.59l-66.05-70.06c-20.08-21.13-52.63-21.13-72.7 0-20.08 21.13-20.08 55.4 0 76.53l153.6 161.69c19.91 21.13 52.33 21.27 72.41.31.1-.1.2-.21.3-.31l153.6-161.69c20.08-20.96 20.21-55.09.3-76.22-.11-.1-.21-.21-.31-.31zM972.8 1024H51.2C22.92 1024 0 999.87 0 970.1V431.14c.01-29.77 22.95-53.89 51.22-53.87 28.26.01 51.17 24.13 51.18 53.87-3.81 55.52 35.85 103.78 88.59 107.79a90.95 90.95 0 0 0 13.81 0c26.2.42 51.66-9.15 71.68-26.95 21.34-20.66 32.64-50.39 30.72-80.84.02-29.77 22.95-53.88 51.23-53.86 28.25.02 51.15 24.12 51.17 53.86-3.81 55.52 35.85 103.78 88.59 107.79a90.95 90.95 0 0 0 13.81 0c53.95 2.75 99.79-41.06 102.4-97.85a109.84 109.84 0 0 0 0-9.94c.02-29.77 22.95-53.88 51.23-53.86 28.25.02 51.15 24.12 51.17 53.86-3.81 55.52 35.85 103.78 88.59 107.79a90.95 90.95 0 0 0 13.81 0c26.2.42 51.66-9.15 71.68-26.95 21.34-20.66 32.64-50.39 30.72-80.84.02-29.77 22.95-53.88 51.23-53.86 28.25.02 51.15 24.12 51.17 53.86V970.1c0 29.77-22.92 53.9-51.2 53.9zM102.4 916.21h819.2V619.24C843.33 662.4 748.11 652 679.94 592.83a169.22 169.22 0 0 1-14.34-14.01c-79.81 83.41-206.72 89.47-293.38 14.01l-13.82-15.09c-67.76 70.8-171.14 87.56-256 41.5v296.97z"/></svg>