<?xml version="1.0" standalone="no"?><!DOCTYPE svg PUBLIC "-//W3C//DTD SVG 1.1//EN" "http://www.w3.org/Graphics/SVG/1.1/DTD/svg11.dtd"><svg t="1658675603010" class="icon" viewBox="0 0 1024 1024" version="1.1" xmlns="http://www.w3.org/2000/svg" p-id="12471" xmlns:xlink="http://www.w3.org/1999/xlink" width="200" height="200"><defs><style type="text/css">@font-face { font-family: feedback-iconfont; src: url("//at.alicdn.com/t/font_1031158_u69w8yhxdu.woff2?t=1630033759944") format("woff2"), url("//at.alicdn.com/t/font_1031158_u69w8yhxdu.woff?t=1630033759944") format("woff"), url("//at.alicdn.com/t/font_1031158_u69w8yhxdu.ttf?t=1630033759944") format("truetype"); }
</style></defs><path d="M832 256H192c-17.6 0-32-14.4-32-32s14.4-32 32-32h640c17.6 0 32 14.4 32 32s-14.4 32-32 32zM768 128H256c-17.6 0-32-14.4-32-32s14.4-32 32-32h512c17.6 0 32 14.4 32 32s-14.4 32-32 32zM800 320H224c-70.4 0-128 57.6-128 128v384c0 70.4 57.6 128 128 128h576c70.4 0 128-57.6 128-128V448c0-70.4-57.6-128-128-128zM662.51 694.745L534.745 822.51a31.834 31.834 0 0 1-4.489 3.723C525.069 829.861 518.774 832 512 832c-6.774 0-13.069-2.139-18.256-5.767a31.834 31.834 0 0 1-4.489-3.723L361.49 694.745c-12.445-12.445-12.445-32.81 0-45.255s32.81-12.445 45.255 0L480 722.745V480c0-17.6 14.4-32 32-32s32 14.4 32 32v242.745l73.255-73.255c12.445-12.445 32.81-12.445 45.255 0s12.445 32.81 0 45.255z" p-id="12472" fill="#3eaf7c"></path></svg>