
<svg xmlns="http://www.w3.org/2000/svg" viewBox="0 0 1024 1024"><path fill="#0F5197" d="M923.699 761.758a328.213 328.213 0 0 1-41.986 18.794 408.907 408.907 0 0 1-143.554 25.992c-189.138 0-353.884-129.958-353.884-297.103a125.48 125.48 0 0 1 65.578-109.165c-171.144 7.198-215.13 185.54-215.13 289.906 0 295.503 272.312 325.494 331.093 325.494 31.59 0 79.174-9.197 107.964-18.394l5.199-1.6a511.833 511.833 0 0 0 266.313-211.131 15.995 15.995 0 0 0-4.799-21.993 16.835 16.835 0 0 0-16.794-.8z"/><path fill="#0C88DA" d="M422.662 965.292a317.816 317.816 0 0 1-90.77-85.172 322.735 322.735 0 0 1 117.961-479.844 132.477 132.477 0 0 1 61.98-15.995A130.318 130.318 0 0 1 614.6 436.264a128.798 128.798 0 0 1 25.591 74.776c0-.8 97.968-318.296-319.895-318.296C144.753 192.744.4 359.49.4 505.442a521.51 521.51 0 0 0 48.384 223.927A512.113 512.113 0 0 0 674.18 997.68a303.021 303.021 0 0 1-251.518-32.389z"/><path fill="#2CC3D5" d="M609.001 595.413c-3.199 3.998-13.195 9.996-13.195 22.792 0 10.397 6.798 20.394 18.794 28.79 57.58 39.988 165.946 34.79 166.345 34.79a238.922 238.922 0 0 0 121.16-33.19 245.12 245.12 0 0 0 121.561-211.53c1.2-89.572-31.99-149.152-45.185-175.544a440.496 440.496 0 0 0-83.733-113.842A493.64 493.64 0 0 0 752.075 50.59 582.53 582.53 0 0 0 511.833.007 511.833 511.833 0 0 0 0 504.642C2 358.69 147.152 240.728 319.896 240.728c13.995 0 93.97 1.2 167.945 40.387 65.179 34.389 99.567 75.575 123.16 116.762 24.792 42.786 29.19 96.369 29.19 117.962s-10.796 53.182-31.19 79.574z"/><path fill="#49D668" d="M649.548 15.122s372.639 385.154-48.544 593.246c0 0-27.231 45.226 102.847 68.618 0 0 215.49 46.825 302.46-142.514 17.515-59.38 33.11-151.39-13.195-253.797a427.86 427.86 0 0 0-76.975-113.683 546.382 546.382 0 0 0-113.083-94.689c-68.457-34.988-153.51-57.181-153.51-57.181z"/></svg>