
<svg xmlns="http://www.w3.org/2000/svg" viewBox="0 0 1024 1024"><path fill="#db5145" d="M892.88 551.09H787.95V235.92H473.16V130.86c0-14.71-11.54-26.26-26.23-26.26s-26.23 11.56-26.23 26.26v105.06H105.91l.52 111.36C198.24 383 263.3 472.82 263.3 577.36s-65.58 194.36-157.4 230.08V918.8h111.23c35.68-91.92 125.39-157.59 229.8-157.59s194.12 65.66 229.8 157.59h111.23V603.62h104.93c14.69 0 26.23-11.56 26.23-26.26 0-14.71-11.55-26.27-26.24-26.27z" opacity=".8"/><path fill="#333" d="M892.88 446.04V235.92c0-57.78-47.22-105.06-104.93-105.06H578.09C578.07 58.34 519.32-.44 446.88-.41c-72.4.03-131.09 58.78-131.12 131.28H105.91C48.19 130.86 1.5 178.14 1.5 235.92v199.61h15.21c78.17 0 141.66 63.56 141.66 141.83S94.89 719.18 16.71 719.18H.97v199.61c0 57.78 47.22 105.06 104.93 105.06h199.37v-15.76c0-78.27 63.48-141.83 141.66-141.83s141.66 63.56 141.66 141.83v15.76h199.37c57.71 0 104.93-47.28 104.93-105.06V708.68c72.44-.03 131.14-58.84 131.12-131.37-.04-72.49-58.72-131.25-131.13-131.27zm0 157.58H787.95v315.17H676.73c-36.92-94.86-128.11-157.4-229.8-157.59-101.69.19-192.88 62.72-229.8 157.59H105.91V807.43c91.81-35.72 157.4-125.54 157.4-230.08S198.24 383 106.43 347.28l-.52-111.36H420.7V130.86c0-14.71 11.54-26.26 26.23-26.26s26.23 11.56 26.23 26.26v105.06h314.79v315.17h104.93c14.69 0 26.23 11.56 26.23 26.26.01 14.72-11.54 26.27-26.23 26.27z"/></svg>
