
<svg xmlns="http://www.w3.org/2000/svg" xmlns:xlink="http://www.w3.org/1999/xlink" viewBox="0 0 1024 1024"><linearGradient id="a" x1="1.339" x2=".964" y1="1024.954" y2="1024.604" gradientTransform="matrix(2206.7275 0 0 -2278.6919 -2044.786 2335710)" gradientUnits="userSpaceOnUse"><stop offset=".048" stop-color="#fff44f"/><stop offset=".111" stop-color="#ffe847"/><stop offset=".225" stop-color="#ffc830"/><stop offset=".368" stop-color="#ff980e"/><stop offset=".401" stop-color="#ff8b16"/><stop offset=".462" stop-color="#ff672a"/><stop offset=".534" stop-color="#ff3647"/><stop offset=".705" stop-color="#e31587"/></linearGradient><path fill="url(#a)" d="M974.54 342.09c-21.83-52.13-65.48-108.24-99.9-125.83a517.28 517.28 0 0 1 50.46 150.87v.9C868.99 227.69 773.59 171.19 695.65 47.92c-4.11-6.16-7.96-12.45-11.81-19-2.18-3.85-3.85-7.19-5.52-10.27a90.213 90.213 0 0 1-7.45-19.77 1.28 1.28 0 0 0-1.03-1.28c-.41-.16-.87-.16-1.28 0v.26c0 .26-.39 0-.39 0v-.26c-124.8 73.18-167.3 208.77-171.16 276.44a249.04 249.04 0 0 0-137 52.9 150.12 150.12 0 0 0-12.84-9.76 230.69 230.69 0 0 1-1.28-121.98 368.53 368.53 0 0 0-119.93 92.71c-19.9-24.91-18.49-107.34-17.33-124.55a88.967 88.967 0 0 0-16.69 8.73 362.117 362.117 0 0 0-48.79 41.73 434.147 434.147 0 0 0-46.22 55.85 420.396 420.396 0 0 0-66.77 150.74l-.9 3.47c-.9 4.24-4.37 26.19-4.88 30.82v1.28a472.99 472.99 0 0 0-7.96 68.57v2.57c.44 274.86 223.62 497.32 498.49 496.88 241.75-.39 448.26-174.45 489.56-412.65.9-6.42 1.54-12.84 2.31-19.26a511.825 511.825 0 0 0-32.1-250h-.14zM400.97 731.53c2.31 1.28 4.49 2.57 6.81 3.47l.39.26c-2.31-1.2-4.67-2.48-7.06-3.85l-.14.12zM925.23 367.9v-.39.51-.12z"/><radialGradient id="b" cx="26.443" cy="1022.872" r="36.398" gradientTransform="matrix(28.5026 0 0 -28.5026 133.44 29266.156)" gradientUnits="userSpaceOnUse"><stop offset=".129" stop-color="#ffbd4f"/><stop offset=".186" stop-color="#ffac31"/><stop offset=".247" stop-color="#ff9d17"/><stop offset=".283" stop-color="#ff980e"/><stop offset=".403" stop-color="#ff563b"/><stop offset=".467" stop-color="#ff3750"/><stop offset=".71" stop-color="#f5156c"/><stop offset=".782" stop-color="#eb0878"/><stop offset=".86" stop-color="#e50080"/></radialGradient><use fill="url(#b)" xlink:href="#M"/><radialGradient id="c" cx="13.143" cy="1007.992" r="36.398" gradientTransform="matrix(28.5026 0 0 -28.5026 133.44 29266.156)" gradientUnits="userSpaceOnUse"><stop offset=".3" stop-color="#960e18"/><stop offset=".351" stop-color="#b11927" stop-opacity=".74"/><stop offset=".435" stop-color="#db293d" stop-opacity=".343"/><stop offset=".497" stop-color="#f5334b" stop-opacity=".094"/><stop offset=".53" stop-color="#ff3750" stop-opacity="0"/></radialGradient><use fill="url(#c)" xlink:href="#M"/><radialGradient id="d" cx="17.531" cy="1031.133" r="26.369" gradientTransform="matrix(28.5026 0 0 -28.5026 133.44 29266.156)" gradientUnits="userSpaceOnUse"><stop offset=".132" stop-color="#fff44f"/><stop offset=".252" stop-color="#ffdc3e"/><stop offset=".506" stop-color="#ff9d12"/><stop offset=".526" stop-color="#ff980e"/></radialGradient><path fill="url(#d)" d="M732.63 400.51c1.28.77 2.05 1.54 3.08 2.31a271.39 271.39 0 0 0-46.22-60.35C534.89 187.88 649.04 7.09 668.3-2.03v-.39c-124.8 73.2-167.31 208.79-171.16 276.46 5.78-.39 11.56-.77 17.46-.77 90.23.13 173.46 48.66 218.03 127.12v.12z"/><radialGradient id="e" cx="9.117" cy="998.484" r="17.331" gradientTransform="matrix(28.5026 0 0 -28.5026 133.44 29266.156)" gradientUnits="userSpaceOnUse"><stop offset=".353" stop-color="#3a8ee6"/><stop offset=".472" stop-color="#5c79f0"/><stop offset=".669" stop-color="#9059ff"/><stop offset="1" stop-color="#c139e6"/></radialGradient><use fill="url(#e)" xlink:href="#N"/><radialGradient id="f" cx="-7957.398" cy="9539.936" r="9.189" gradientTransform="matrix(27.7046 -6.6981 -7.8382 -32.436 295797.125 256588.438)" gradientUnits="userSpaceOnUse"><stop offset=".206" stop-color="#9059ff" stop-opacity="0"/><stop offset=".278" stop-color="#8c4ff3" stop-opacity=".064"/><stop offset=".747" stop-color="#7716a8" stop-opacity=".45"/><stop offset=".975" stop-color="#6e008b" stop-opacity=".6"/></radialGradient><use fill="url(#f)" xlink:href="#N"/><radialGradient id="g" cx="12.683" cy="1024.362" r="12.468" gradientTransform="matrix(28.5026 0 0 -28.5026 133.44 29266.156)" gradientUnits="userSpaceOnUse"><stop offset="0" stop-color="#ffe226"/><stop offset=".121" stop-color="#ffdb27"/><stop offset=".295" stop-color="#ffc82a"/><stop offset=".502" stop-color="#ffa930"/><stop offset=".732" stop-color="#ff7e37"/><stop offset=".792" stop-color="#ff7139"/></radialGradient><path fill="url(#g)" d="M337.03 310.38l10.27 6.81a230.69 230.69 0 0 1-1.28-121.98 368.53 368.53 0 0 0-119.93 92.71c2.57 0 74.47-1.28 110.94 22.34v.12z"/><radialGradient id="h" cx="22.483" cy="1032.27" r="53.194" gradientTransform="matrix(28.5026 0 0 -28.5026 133.44 29266.156)" gradientUnits="userSpaceOnUse"><stop offset=".113" stop-color="#fff44f"/><stop offset=".456" stop-color="#ff980e"/><stop offset=".622" stop-color="#ff5634"/><stop offset=".716" stop-color="#ff3647"/><stop offset=".904" stop-color="#e31587"/></radialGradient><path fill="url(#h)" d="M20.9 538.93c38.52 226.89 243.96 400.23 477.65 406.78 216.1 6.16 354.13-119.41 411.14-241.65a450.666 450.666 0 0 0 15.41-335.9v-1.02l.26.9c17.46 115.3-41.09 226.89-132.77 302.39l-.39.64c-178.48 145.48-349.25 87.83-383.92 64.2a80.324 80.324 0 0 1-7.32-3.6c-104.01-49.69-147.15-144.58-137.9-225.99-50.48.76-96.67-28.27-117.87-74.09a187.72 187.72 0 0 1 182.97-7.32 247.855 247.855 0 0 0 186.7 7.32c-.26-4.11-86.8-38.52-120.7-71.9-17.98-17.72-26.45-26.19-34.15-32.61a150.12 150.12 0 0 0-12.84-9.76c-2.95-2.05-6.16-4.24-10.27-6.81-36.21-23.63-108.37-22.34-110.81-22.34h-.26c-19.65-24.91-18.36-107.34-17.21-124.55a88.967 88.967 0 0 0-16.69 8.73 362.45 362.45 0 0 0-48.79 41.86 434.114 434.114 0 0 0-46.61 55.73 420.396 420.396 0 0 0-66.77 150.74c-.26 1.02-17.98 78.32-9.24 118.38l.38-.13z"/><radialGradient id="i" cx="-7928.436" cy="9499.111" r="38.967" gradientTransform="matrix(2.9928 28.3601 18.6122 -1.9667 -152425.031 243461.219)" gradientUnits="userSpaceOnUse"><stop offset="0" stop-color="#fff44f"/><stop offset=".06" stop-color="#ffe847"/><stop offset=".168" stop-color="#ffc830"/><stop offset=".304" stop-color="#ff980e"/><stop offset=".356" stop-color="#ff8b16"/><stop offset=".455" stop-color="#ff672a"/><stop offset=".57" stop-color="#ff3647"/><stop offset=".737" stop-color="#e31587"/></radialGradient><path fill="url(#i)" d="M689.62 342.48a270.567 270.567 0 0 1 46.22 60.35l7.45 6.16C856.28 513 797.22 660.02 792.72 670.54c91.55-75.5 150.23-187.08 132.64-302.39-56.5-140.34-151.77-196.84-229.84-320.11l-11.56-19c-2.18-3.85-3.85-7.19-5.52-10.27a90.75 90.75 0 0 1-7.58-19.9 1.28 1.28 0 0 0-1.03-1.28c-.41-.16-.87-.16-1.28 0v.26c0 .26-.39 0-.39 0-19.26 9.24-133.54 190.03 21.31 344.63h.15z"/><radialGradient id="j" cx="12.39" cy="1019.744" r="33.21" gradientTransform="matrix(28.5026 0 0 -28.5026 133.44 29266.156)" gradientUnits="userSpaceOnUse"><stop offset=".137" stop-color="#fff44f"/><stop offset=".48" stop-color="#ff980e"/><stop offset=".592" stop-color="#ff5634"/><stop offset=".655" stop-color="#ff3647"/><stop offset=".904" stop-color="#e31587"/></radialGradient><path fill="url(#j)" d="M743.16 408.99c-2.18-2.05-4.75-4.11-7.45-6.16l-3.08-2.31a171.828 171.828 0 0 0-120.06-29.15c178.99 89.62 130.97 398.04-117.1 386.23-22.03-.91-43.8-5.11-64.59-12.45-4.88-1.71-9.76-3.68-14.64-5.91l-8.35-3.85h.39c34.67 23.63 205.44 81.41 384.18-64.2l.26-.51c4.49-10.27 63.56-157.55-49.31-261.43l-.25-.26z"/><radialGradient id="k" cx="21.156" cy="1017.8" r="36.348" gradientTransform="matrix(28.5026 0 0 -28.5026 133.44 29266.156)" gradientUnits="userSpaceOnUse"><stop offset=".094" stop-color="#fff44f"/><stop offset=".231" stop-color="#ffe141"/><stop offset=".509" stop-color="#ffaf1e"/><stop offset=".626" stop-color="#ff980e"/></radialGradient><path fill="url(#k)" d="M290.54 572.06s23.11-85.52 164.35-85.52c15.41 0 59.06-42.76 60.09-55.21a247.83 247.83 0 0 1-186.95-7.19 187.72 187.72 0 0 0-182.97 7.32c21.28 45.85 67.59 74.85 118.13 73.96-9.37 81.41 33.64 176.3 137.77 225.99 2.31 1.28 4.49 2.31 6.81 3.47-60.73-31.46-110.94-90.78-117.23-163.07v.25z"/><defs><path id="M" d="M974.54 342.09c-21.83-52.13-65.48-108.24-99.9-125.83a517.28 517.28 0 0 1 50.46 150.87v1.03a450.666 450.666 0 0 1-15.41 335.9c-57.01 122.37-195.17 247.82-411.27 241.65-233.43-6.42-439.13-179.77-477.65-406.78-6.93-35.95 0-53.93 3.6-83.08a371.127 371.127 0 0 0-7.96 68.57v2.57c.44 274.86 223.62 497.32 498.49 496.88 241.75-.39 448.26-174.45 489.56-412.65.9-6.42 1.54-12.84 2.31-19.26a511.825 511.825 0 0 0-32.1-250l-.13.13z"/><path id="N" d="M514.99 431.59c-.9 12.2-44.56 54.96-59.96 54.96-141.5 0-164.35 85.52-164.35 85.52 6.16 72.16 56.5 131.48 117.1 163.07l8.47 3.85a347.63 347.63 0 0 0 14.64 6.03c20.82 7.4 42.64 11.64 64.71 12.58 248.07 11.56 296.09-296.61 117.1-386.1a171.8 171.8 0 0 1 119.93 29.28c-44.56-78.46-127.79-126.99-218.03-127.12-5.91 0-11.56.26-17.46.64a249.04 249.04 0 0 0-137 52.9c7.7 6.42 16.18 14.89 34.28 32.74 33.77 33.38 120.31 67.67 120.7 71.9l-.13-.25z"/></defs></svg>