
<svg xmlns="http://www.w3.org/2000/svg" viewBox="0 0 1024 1024"><style>.D{fill-rule:evenodd}.E{fill:#874300}</style><path d="M835.68 322.62c66.88-87.16 163.12-12.3 175.82 55.81 30.64 163.84-27.38 229.8-98.22 266.03-32.52 16.64-71.78-71.54-82.74-116.51C816 468 796.98 372.92 835.62 322.64" class="D E"/><radialGradient id="A" cx="863.942" cy="548.857" r="130.148" fx="891.692" fy="610.89" gradientTransform="matrix(1 0 0 -1 0 1026)" gradientUnits="userSpaceOnUse"><stop offset="0" stop-color="#957c53"/><stop offset=".762" stop-color="#d3af75"/><stop offset="1" stop-color="#c8a66f"/></radialGradient><g class="D"><path fill="url(#A)" d="M880.02 360.26c39.17-23.52 65.79 24.85 76.05 55.56 13.35 39.95 4.07 90.52-1.5 112.84-7.81 31.33-31.22 69.69-44.6 64.79-22.74-8.34-38.85-48-42.65-77.57-6.65-51.71-4.74-145.12 12.7-155.59"/><path d="M183.17 373.29C99.98 297.78 11.96 386.95 9.51 456.25 3.64 622.9 74.29 678.88 153.53 703.45c36.38 11.28 63.18-82.02 67.39-128.16 5.61-61.53 10.3-158.4-37.75-202.01v.01z" class="E"/></g><radialGradient id="B" cx="180.669" cy="495.805" r="130.148" fx="162.769" fy="561.381" gradientTransform="matrix(1 0 0 -1 0 1026)" gradientUnits="userSpaceOnUse"><stop offset="0" stop-color="#957c53"/><stop offset=".762" stop-color="#d3af75"/><stop offset="1" stop-color="#c8a66f"/></radialGradient><g class="D"><path fill="url(#B)" d="M146.64 417.16c-42.33-17.2-61.16 34.71-66.56 66.63-7.03 41.52 9.94 90.05 18.88 111.23 12.55 29.76 41.6 64.04 54.07 57.13 21.2-11.76 31.03-53.42 30.17-83.22-1.42-52.1-17.72-144.08-36.56-151.77"/><path d="M562.44 1020.11c100.63-7.81 182.54-24.41 261.65-61.3 79.1-36.88 144.89-113.76 158.11-206.95 13.25-93.25-23.63-172.37-66.73-199.74-7.92-101.86-9.58-143.36-47.16-211.51-44.37-80.43-116.88-185.65-371.5-165.83h-.1c-254.59 19.74-309.96 134.9-341.4 221.2-26.61 73.11-21.85 114.4-13.95 216.27-38.36 33.7-62.59 117.55-35.1 207.64s104.31 155.85 188.17 180.08c83.85 24.23 167.34 28 267.98 20.17h.05" class="E"/><path fill="#613000" d="M770.06-.19C651 50.05 514.74 142.6 430.2 241.39c111.24-18.89 170.77-44 271.04-72.29L770.06-.19z"/><path d="M155.35 395.96c32.79-105.03 90.62-283.77 614.7-396.15-138.64 61.95-245.14 142-339.86 241.58 111.24-18.89 200.53-56.56 271.04-72.29 70.5-15.71 161.38-33.01 161.38-33.01-18.79 21.95-36.79 54.09-64.18 97.21 21.95 18.79 56.46 67.34 69.82 107.31l-712.9 55.36" class="E"/></g><radialGradient id="C" cx="538.106" cy="316.259" r="711.058" fx="538.003" fy="316.362" gradientTransform="matrix(1 0 0 -1 0 1026)" gradientUnits="userSpaceOnUse"><stop offset="0" stop-color="#efddb5"/><stop offset=".407" stop-color="#efd092"/><stop offset=".678" stop-color="#cca76e"/><stop offset="1" stop-color="#8d4600"/></radialGradient><path fill="url(#C)" d="M514.17 398.84c35.12-126.05 199.32-218.62 294.56-33.12 29.11 56.66 29.68 118.29 35.4 191.94 44.32 43.2 69.17 66.63 64.36 169.18-3.86 82.23-74.56 140.76-129.94 174.04-58.74 35.3-144.99 52.24-220.9 58.14-75.91 5.89-163.75 2.46-227.22-23.35-59.86-24.33-138.74-71.2-155.24-151.89-20.48-100.6.36-127.58 37.48-177.1-5.71-73.63-14.66-134.62 5.35-195.07C283.48 213.62 460 279.74 514.16 398.86" class="D"/><radialGradient id="D" cx="519.167" cy="506.649" r="367.272" fx="519.064" fy="506.731" gradientTransform="matrix(1 0 0 -1 0 1026)" gradientUnits="userSpaceOnUse"><stop offset=".631" stop-color="#570503"/><stop offset=".796" stop-color="#710603"/><stop offset=".889" stop-color="#680603"/><stop offset="1" stop-color="#570503"/></radialGradient><path fill="url(#D)" d="M539.34 779.06c-40.77 3.17-81.82 7.03-122.62 4.4-31.74-2.05-64.58-5.41-93.64-18.34-15.56-6.93-26.68-29.93-33.72-38.37-6.14-10.97-18.89-15.87-21.17-8.6-6.09 19.5-4.73 43.01 4.75 61.11 10.06 19.19 29.57 33.5 49.39 42.27 27.6 12.21 58.49 16.21 88.55 18.74 44.24 3.72 88.93 3.34 133.22-.1 44.27-3.43 88.47-9.95 131.62-20.46 29.31-7.14 59.22-15.87 84.59-32.18 18.23-11.72 35.31-28.88 42.28-49.4 6.56-19.35 4.29-42.78-4.74-61.11-3.38-6.83-15.21-.01-19.59 11.78-5.65 9.42-13.09 33.86-27.39 43.11-26.71 17.26-58.64 25.65-89.69 32.57-39.91 8.91-81.05 11.42-121.82 14.59" class="D"/><linearGradient id="E" x1="384.151" x2="466.224" y1="449.563" y2="649.035" gradientUnits="userSpaceOnUse"><stop offset="0" stop-color="#346732"/><stop offset="1" stop-color="#021301"/></linearGradient><path fill="url(#E)" d="M363.01 564.23c-5.51-71.33 21.73-104.14 58.3-107.01 36.56-2.81 68.61 25.39 74.11 96.71 5.51 71.3-21.73 104.14-58.3 107.01-36.56 2.8-68.61-25.43-74.11-96.71" class="D"/><linearGradient id="F" x1="414.236" x2="370.235" y1="544.801" y2="512.341" gradientUnits="userSpaceOnUse"><stop offset="0" stop-color="#e6ffe6"/><stop offset=".343" stop-color="#d0e6d0"/><stop offset=".694" stop-color="#d0e6d0"/><stop offset="1" stop-color="#e6ffe6"/></linearGradient><path fill="url(#F)" d="M381.44 537.2c-1.98-25.44 7.41-36.43 17.6-37.22s21.17 8.62 23.14 34.07c1.98 25.48-7.42 36.4-17.61 37.23-10.18.82-21.14-8.6-23.13-34.08" class="D"/><linearGradient id="G" x1="577.635" x2="659.758" y1="434.512" y2="633.974" gradientUnits="userSpaceOnUse"><stop offset="0" stop-color="#346732"/><stop offset="1" stop-color="#021301"/></linearGradient><path fill="url(#G)" d="M556.54 549.23c-5.5-71.32 21.73-104.14 58.3-107.01 36.56-2.81 68.61 25.39 74.11 96.72 5.51 71.29-21.73 104.14-58.29 107.01-36.57 2.8-68.61-25.44-74.12-96.72" class="D"/><linearGradient id="H" x1="607.777" x2="563.777" y1="529.757" y2="497.317" gradientUnits="userSpaceOnUse"><stop offset="0" stop-color="#e6ffe6"/><stop offset=".343" stop-color="#d0e6d0"/><stop offset=".694" stop-color="#d0e6d0"/><stop offset="1" stop-color="#e6ffe6"/></linearGradient><path fill="url(#H)" d="M574.95 522.15c-1.98-25.45 7.42-36.44 17.61-37.23 10.18-.78 21.16 8.62 23.13 34.08 1.98 25.47-7.41 36.39-17.6 37.22-10.17.82-21.15-8.6-23.14-34.07" class="D"/></svg>