
<svg xmlns="http://www.w3.org/2000/svg" viewBox="0 0 1024 1024" xmlns:v="https://vecta.io/nano"><g opacity="0"><path d="M893.8 421.52h0c0 180.43-138.85 326.7-310.13 326.7h0c-171.28 0-310.13-146.27-310.13-326.7h0c0-180.43 138.85-326.7 310.13-326.7h0c171.28 0 310.13 146.27 310.13 326.7h0m-11.47 0h0c0-173.76-133.72-314.62-298.66-314.62h0C418.72 106.9 285 247.76 285 421.52h0c0 173.76 133.72 314.62 298.66 314.62h0c164.95 0 298.67-140.86 298.67-314.62z"/><path d="M614.24 254.88h0c0 180.43-138.85 326.7-310.13 326.7h0c-171.28 0-310.13-146.27-310.13-326.7h0c0-180.43 138.85-326.7 310.13-326.7h0c171.28 0 310.13 146.27 310.13 326.7h0m-11.47 0h0c0-173.76-133.72-314.62-298.66-314.62h0C139.16-59.74 5.44 81.12 5.44 254.88h0c0 173.76 133.72 314.62 298.66 314.62h0c164.95 0 298.67-140.86 298.67-314.62zm569.44 397.27h0c0 180.43-138.85 326.7-310.13 326.7h0c-171.28 0-310.13-146.27-310.13-326.7h0c0-180.43 138.85-326.7 310.13-326.7h0c171.28 0 310.13 146.27 310.13 326.7h0m-11.47 0h0c0-173.76-133.72-314.62-298.66-314.62h0c-164.95 0-298.66 140.86-298.66 314.62h0c0 173.76 133.72 314.62 298.66 314.62h0c164.95.01 298.66-140.85 298.66-314.62z"/></g><g opacity="0"><path d="M408.16 74.47h0 0 0 0c59.82-21.27 121.16-43.17 203.1-34.75h0c81.35 8.36 183.33 46.64 250.94 111.01h0c11.94 11.36 22.78 23.52 32.7 36.3h0c46.37 59.72 73.03 133.61 99.18 205.85 1.63 4.5-.51 9.53-4.78 11.25-4.27 1.71-9.05-.54-10.68-5.04h0c-26.34-72.76-52.15-143.87-96.52-201.02h0c-9.44-12.16-19.71-23.67-30.99-34.41h0c-64.42-61.33-162.8-98.51-241.45-106.59h0c-78.06-8.03-136.38 12.64-196.2 33.92-4.33 1.54-9.02-.91-10.48-5.47-1.48-4.56.85-9.51 5.18-11.05h0 0 0 0zM258.85 426.02h0 0 0 0C305.47 442 350.98 457.57 405.06 460h0c54.22 2.43 117.27-8.35 169.98-29.94h0c52.64-21.56 95.18-53.95 138.64-87.1 2.93-2.23 6.89-2.21 9.78.06 2.9 2.27 4.07 6.26 2.88 9.85h0C699.76 433.6 672.49 517 605.42 577.89h0c-66.6 60.47-171.94 98.13-274.94 135.11-4.32 1.55-9.02-.88-10.5-5.44-1.47-4.56.84-9.51 5.16-11.06h0c104.09-37.36 205.84-74.03 269.48-131.81h0c63.17-57.36 89.28-136.11 116.09-217.54l12.67 9.91c-43.26 32.99-87.43 66.73-142.34 89.22h0c-54.84 22.46-120.17 33.64-176.68 31.1h0c-56.64-2.55-104.19-18.89-150.63-34.82-4.34-1.49-6.72-6.41-5.31-10.98 1.42-4.55 6.08-7.05 10.43-5.56h0 0 0 0zm381.34 96.92h0 0 0 0c47.66.77 96.41 1.52 139.72 11.64h0c43.44 10.15 81.08 29.66 117.75 48.62 3.26 1.68 5.09 5.41 4.53 9.18-.57 3.78-3.4 6.72-7 7.26h0c-88.15 13.32-175 26.48-239.65 51.9h0c-64.19 25.23-106.71 62.67-150.21 101.04-3.5 3.09-8.72 2.6-11.65-1.09s-2.47-9.19 1.03-12.28h0c43.46-38.34 87.91-77.61 155.05-104.01h0c66.68-26.22 155.54-39.6 243.08-52.82l-2.47 16.45c-36.9-19.08-72.83-37.61-114.04-47.25h0c-41.34-9.67-88.32-10.46-136.39-11.23-4.57-.07-8.21-4.03-8.14-8.85.06-4.79 3.82-8.63 8.39-8.56h0 0 0 0zm124.32 97.48h0 0 0 0l-.25.32h0c-73.5 95.34-148.59 192.93-251.42 239.65h0c-99.95 45.41-226.15 42.82-319.24-24.06h0c-2.79-2-5.52-4.05-8.25-6.16h0c-93.46-72.6-148.57-212.28-160.6-321.16h0c-12.12-109.77 19.3-189.31 42.46-234.9h0c23.33-45.93 38.85-58.47 54.34-70.73l9.14 14.49-109.1 67.2c-3.64 2.24-8.29 1.24-10.81-2.31-2.52-3.56-2.1-8.54.98-11.57h0c68.09-67.18 136.89-135.1 198.81-178.68h0c62.25-43.82 117.41-62.99 171.63-81.85a7.89 7.89 0 0 1 2.68-.44h0l83.41.87c3.28.03 6.23 2.11 7.52 5.28 1.29 3.18.68 6.86-1.56 9.38h0l-.24.27h0c-73.56 82.84-145.1 163.69-170.58 233.59h0c-24.99 68.58-5.55 127.18 15.24 189.02 1.53 4.54-.73 9.52-5.04 11.12-4.31 1.61-9.03-.77-10.56-5.3h0c-20.59-61.25-42.54-125.75-15.09-201.09h0C314.9 179.53 389.37 95.84 461.93 14.12h0l.24-.27 5.96 14.67-83.41-.87 2.68-.44C333.22 46.06 279.98 64.62 219.77 107h0C159.23 149.62 91.51 216.4 23.08 283.92l-9.83-13.88 109.1-67.2c3.78-2.33 8.64-1.15 11.06 2.7 2.43 3.85 1.58 9.02-1.92 11.79h0c-13.84 10.95-27.65 21.62-49.69 65.01h0C59.59 326.07 29.59 401.98 41.19 507h0c11.69 105.91 65.42 240.35 153.97 309.14h0c2.57 1.99 5.13 3.91 7.75 5.79h0c87.64 62.96 207.69 65.93 303.37 22.46h0c98.41-44.71 171.01-138.49 245.13-234.63h0l.25-.33c2.88-3.74 8.09-4.31 11.64-1.27s4.09 8.53 1.21 12.26h0 0 0 0zM592.18 790.33h0 0 0 0c60.95 1.63 119.6 3.06 179.78-31.01h0c60.6-34.31 123.38-105.05 159.39-185.75h0c35.98-80.63 45.31-171.25 54.74-263.66.43-4.22 3.69-7.5 7.72-7.77 4.02-.26 7.64 2.57 8.56 6.71h0l.07.32h0c9.43 42.37 19.02 85.48 20.42 143.78h0c1.4 58.19-5.35 132.04-31.37 197.44h0c-25.99 65.32-71.03 121.57-114.99 176.59-2.94 3.68-8.16 4.15-11.66 1.06-3.5-3.1-3.94-8.6-1-12.28h0c44.31-55.45 87.55-109.68 112.4-172.11h0c24.81-62.35 31.45-133.52 30.1-190.26h0c-1.35-56.36-10.57-97.96-19.98-140.24h0l-.07-.32 16.28-1.06c-9.38 91.84-18.86 185.48-56.22 269.21h0C908.99 664.64 843.9 738.37 779.8 774.67h0c-64.53 36.53-127.43 34.7-188.03 33.08-4.57-.12-8.18-4.12-8.06-8.93.11-4.81 3.91-8.61 8.47-8.49h0 0 0 0zm436.28-299.14h0 0 0 0c-14.77 117.66-29.73 238.65-106.36 331.27h0c-76.35 92.28-213.15 155.61-327.32 160.9h0c-114.8 5.32-206.45-48.07-295.87-99.94-4-2.32-5.46-7.62-3.26-11.84s7.23-5.75 11.24-3.43h0c89.96 52.19 177.68 102.86 287.17 97.79h0c110.11-5.1 242.5-66.61 315.58-154.94h0c72.8-87.99 87.53-203.38 102.43-322.11.6-4.77 4.76-8.13 9.29-7.5 4.51.64 7.7 5.02 7.1 9.8h0 0 0 0zm-80.93 40.63h0 0l1.03-6.61c2.7-17.26-.14-60.89-4.35-100.26h0c-4.23-39.47-14.53-94.09-17.08-121.81-1.21-13.08-1.29-26.75-2.47-40.15-.77-8.73 14.39 21.67 15.92 25.85h0l46.59 130.18c1.55 4.53-.68 9.52-4.98 11.15s-9.04-.72-10.59-5.25h0l-18.94-54.39h0c-7.73-21.61-11.65-80.05-11.65-80.05 7.64 46.03 15.35 92.41 19.64 132.51h0c4.31 40.19 3.57 68.01 4.43 101.46.12 4.81-1.86 14.8-6.43 14.93s-8.5-8.47-8.5-8.47l-2.62.91h0 0z"/></g><g opacity="0"><path d="M1106.61 499.21l-5.33 83.38c-25.24 168-99.09 302.36-221.55 403.08-123.31 100.64-268.51 141.45-435.61 122.43-159.47-26.59-287.02-104.38-382.63-233.39-30.64-41.7-55.87-87.14-75.7-136.31l-25-75.83c-13.74-52.18-20.68-106.63-20.84-163.36C-55.89 325.13 1.07 180.29 110.8 64.69S358.02-110.9 523.28-115.29C688.53-110.9 826.02-50.9 935.75 64.69c109.74 115.6 166.69 260.44 170.86 434.52" fill="#b2ddff"/></g><radialGradient id="A" cx="132.694" cy="803.843" r="435.756" gradientTransform="matrix(1.1468 0 0 -1.2081 338.5674 1700.9418)" gradientUnits="userSpaceOnUse"><stop offset="0" stop-color="#0e6ab3"/><stop offset="1" stop-color="#00bcd4"/></radialGradient><path d="M901.13 685.74C875.64 739.62 833.16 789.8 773.7 836.3c-55.47 40.35-118.96 64.22-190.49 71.62-146.99 9.37-267.49-50.99-361.5-181.08-38.07-54.81-60.93-125.32-68.59-211.55-1.89-82.75 11.34-152.1 39.67-208.03 42.13-80.45 90.81-137.6 146.05-171.44 59.63-38.49 124.36-59.65 194.19-63.45 151.18-1.23 269.06 64.17 353.62 196.19 75.44 133.7 80.26 272.76 14.48 417.18" fill="url(#A)"/><linearGradient id="B" gradientUnits="userSpaceOnUse" x1="506.56" y1="699.731" x2="427.269" y2="1127.994"><stop offset="0" stop-color="#055493"/><stop offset="1" stop-color="#032541"/></linearGradient><path d="M920.17 271.53h0 0 0 0 0 0 0 0v.01h0 0 0 0 0 0 0 0 0 0 0c34.24 115.81 50.77 173.95-2.18 304.98C829.31 796 662.07 778.39 581.04 767.67c-117.85-15.59-96.01 5.78-73.13-15l73.21-67.04c16.2-13.22 34.36-25.5 55.46-35.1 48.37-22 121.35-39.53 218.57-53.55l-23.5-10.32c-69.85-31.89-109.34-47.04-118.14-48.56-20.89-3.61-34.31-6.95-40.81-6.95-.61 0-1.16.08-1.65.06l-9.83-.28c-7.12 0-14.46.42-22.02 1.27-11.09 1.24-22.67 3.63-34.74 7.19L586 545.68c-12.55 4.83-25.63 10.29-38.97 16.97L439.36 614.7c-15.19 6.62-30.67 12.37-46.38 17.49-30.37 9.9-61.43 14.94-93.23 14.94-1.2 0-2.4 0-3.6-.02-33.05-.61-66.66-4.91-100.68-13.53-51.24-12.98-102.8-29.68-154.85-49.44h0c34.49 86.29 64 146.94 87.6 182.64C199.43 874.5 315 972.13 469.56 1000.77c262.28 48.6 456.28-101.36 529.35-341.51 38.39-126.16 7.52-271.4-14.15-373.68l-1.62 113.45-62.98-127.52h.01v.02h0 0 0 0 0 0 0 0 0 0 0 0 0 0 0 0 0 0z" fill="url(#B)"/><linearGradient id="C" gradientUnits="userSpaceOnUse" x1="206.939" y1="158.893" x2="485.151" y2="716.302"><stop offset="0" stop-color="#055493"/><stop offset="1" stop-color="#032541"/></linearGradient><path d="M137.95 699.08h0 0 0 0 0 0 0 0v.01h0 0 0 0 0 0c-22.91-11.1 0-.01 0-.01h0 0 0 0 0 0 0 0 0 0 0 0 0 0 0 0zm243.51-680.4h0 0 0 0 0 0 0 0v.01h0 0 0 0 0 0c-19.29-1.56-46.84 12.21-46.84 12.21l-142.55 72.42C150.95 132.89 92.99 195.8 3.96 292.48l92.89-66.52h0c-43.25 59.3-74.06 146.71-78.61 246.47-2.09 45.77 3.26 129.85 29.71 193.18 32.74 78.41 68.62 121.04 107.81 151.59 46.81 36.49 110.65 69.24 200.87 66.92 110.64-2.85 169.82-45.77 197.98-65.18 49.64-34.22 95.34-83.76 124.94-171.79l5.49-14.69h-.01c-36.7 9.61-65.88 22.47-88.1 37.67-14.85 10.15-26.82 17.77-34.6 24.72l-69.85 61.7c-18.26 13.39-33.83 23.05-46.69 29.21-33.63 16.11-70.49 24.45-110.83 24.45-6.89 0-13.9.01-20.97-.71-27.49-2.81-48.84-9.57-65.38-16.41-9.11-3.76-26.8-12.58-50.55-31.8-21.8-17.64-38.51-35.5-51.67-51.48l-8.43-10.72h0c17.33 8.39 88.87 44.09 262.68-4.89 104.64-29.49 165.47-87.25 222.33-144.57 38.19-38.5 70.3-103.59 93.15-198.87h-.01c-70.66 60.59-136.05 96.63-195.72 110.26-38.21 8.73-72.94 14.18-104.66 14.18-39.86 0-74.71-7.46-104.56-22.39-33.32-72.62-40.56-136.94-19.61-192.07 9.55-25.12 24.05-48.54 41.4-71.19L449.2 17.13l-67.74 1.55h0 0 0 0 0 0 0 0 0 0 0 0 0 0 0 0z" fill="url(#C)"/><linearGradient id="D" gradientUnits="userSpaceOnUse" x1="145.815" y1="-39.359" x2="230.312" y2="321.435"><stop offset="0" stop-color="#055493"/><stop offset="1" stop-color="#032541"/></linearGradient><path d="M346.51 170.78l-11.29 3.5c-41.62 12.49-74.01 25.29-97.17 38.42-16.26 9.81-25.77 16.09-28.52 18.82a233.28 233.28 0 0 0-33.18 31.45c-10.05 11.59-18.88 23.97-26.5 37.15-8.9 16.68-13.82 26.84-14.76 30.48-9.98 24.24-16.78 57.08-20.41 98.5L112 463.06c28.63-22.5 54.39-33.83 77.27-33.98 27.18-.98 67.77 6.92 121.78 23.7-14.39-34.17-23.65-60.85-27.75-80.06-3.57-19.24-5.12-30.81-4.65-34.73a148.08 148.08 0 0 1 1.02-23.39c1-7.83 2.63-15.7 4.89-23.61.52-3.92 5.02-15.84 13.51-35.77 9.03-19.96 25.18-48.11 48.44-84.44" fill="url(#D)"/><linearGradient id="E" gradientUnits="userSpaceOnUse" x1="1065.666" y1="665.403" x2="837.774" y2="595.309"><stop offset="0" stop-color="#055493"/><stop offset="1" stop-color="#032541"/></linearGradient><path d="M799.55 941.62l30.07-140.29c68.65-103.77 110.01-182.38 124.1-235.83 11.12-35.77 18.34-71.53 21.63-107.3 1.83-18.08 3.11-35.7 3.83-52.86 1.13-26.14 1.6-64.1 1.43-113.86.23-6.37.86-9.61 1.88-9.72 2.6 3.3 4.96 9.59 7.08 18.87 6.62 29.06 10.69 49.49 12.21 61.3 5.93 35.44 10.16 75.29 12.68 119.56 1.11 21.72 1.33 43.28.67 64.7l-1.88 31.38c-1.87 20.49-4.8 40-8.8 58.53-8.24 37.05-19.25 70.25-33.03 99.6-13.77 29.36-28.32 54.98-43.63 76.86-39.29 57.22-82.04 100.24-128.24 129.06" fill="url(#E)"/><linearGradient id="F" gradientUnits="userSpaceOnUse" x1="346.146" y1="17.136" x2="372.788" y2="96.551"><stop offset="0" stop-color="#055493"/><stop offset="1" stop-color="#032541"/></linearGradient><path d="M261.88 70.05l5.69.04c25.27-.3 43.2 2.06 53.79 7.09 3.88 1.41 8.37 5.25 13.48 11.53 3.45 4.63 7.03 12.07 10.72 22.32 18.48-25.4 33.53-43.17 45.17-53.32 11.21-10.6 30.41-23.96 57.62-40.07-17.58-2-30.98-2.96-40.2-2.86-9.24-.07-18.82.72-28.74 2.38-9.96 1.71-20.34 4.62-31.15 8.75-15.95 5.39-44.74 20.1-86.38 44.14" fill="url(#F)"/><path d="M17.35-2804.07h0 0 0 0 0 0 0 0 0m-2.94 11.68h0 0 0 0 0 0 0 0z"/><g opacity="0"><g fill="#6d6d6d"><path d="M-94.26 695.57l7.59 27.68 7.59 27.68-15.18-55.36M581.08-23.07l225.86-434.08 225.86-434.08L581.08-23.07"/></g><g fill="#fff"><path d="M257.29 212.16h0l20.57-24.75.65-.72h0l22.43-22.89.7-.66h0l24.14-20.87.75-.6h0l25.69-18.71.8-.53h0L380.09 106a8.52 8.52 0 0 1 .84-.46h0l28.25-14.02.87-.39h0L439.3 79.6c.29-.12.59-.22.9-.31h0l30.05-8.96.92-.23h0l30.65-6.33.93-.15h0l31.04-3.65c.31-.04.63-.06.94-.07h0l31.22-.95.94.01h0l31.19 1.75.94.09h0l30.94 4.45a10.1 10.1 0 0 1 .93.17h0l30.49 7.11.91.25h0l29.83 9.73.89.33h0l28.97 12.27c.29.12.58.26.86.41h0l27.92 14.74.83.48h0l26.67 17.11a10.9 10.9 0 0 1 .78.55h0l25.25 19.36.74.62h0l23.65 21.48.69.68h0l21.9 23.46.63.74h0l19.99 25.27.57.79h0l17.95 26.92.5.82h0l15.15 27.11.43.84h0l13.08 28.28.36.87h0l10.93 29.28.3.9h0l8.71 30.09.23.92h0l6.44 30.72.16.94h0l4.13 31.16.09.95h0l1.79 31.4.02.95h0l-.56 31.45-.05.95h0l-2.9 31.31-.12.94h0l-5.23 30.97-.19.93h0l-7.52 30.45-.26.91h0l-9.77 29.73-.33.89h0l-11.96 28.83-.39.86h0l-14.07 27.75-.46.82h0l-16.1 26.5a8.13 8.13 0 0 1-.52.78h0l-18.03 25.08-.57.73h0l-19.84 23.51c-4.21 4.99-11.46 5.43-16.19 1s-5.16-12.07-.95-17.06h0l19.84-23.51-.57.73L864 692.41l-.52.78 16.1-26.5-.46.82 14.07-27.75-.39.86 11.96-28.83-.33.89 9.77-29.73-.26.91 7.52-30.45-.19.93 5.23-30.97-.12.94 2.9-31.31-.05.95.56-31.45.02.95-1.79-31.4.09.95-4.13-31.16.16.94-6.44-30.72.23.92-8.71-30.09.3.9-10.93-29.28.36.87-13.08-28.28.43.84-15.15-27.11.5.82-17.95-26.92.57.79-19.99-25.27.63.74-21.9-23.46.69.68-23.65-21.48.74.62-25.25-19.36.78.55-26.67-17.11.83.48-27.92-14.74.86.41-28.97-12.27.89.33-29.83-9.73.91.25-30.49-7.11.93.17-30.94-4.45.94.09-31.19-1.75.94.01-31.22.95.94-.07-31.04 3.65.93-.15-30.65 6.33.92-.23-30.05 8.96.9-.31-29.25 11.53.87-.39-28.26 14.01.84-.46-27.06 16.42.8-.53-25.69 18.71.75-.6-24.14 20.87.7-.66-22.43 22.89.65-.72-20.57 24.75c-4.17 5.02-11.42 5.53-16.18 1.13-4.77-4.39-5.25-12.02-1.08-17.04zm-2885.45-5489.12h0 0 0 0 0 0 0 0 0m0 52.63h0 0 0 0 0 0 0 0zm2520.48 4212.78h0 0 0 0 0 0 0 0 0m0 52.63h0 0 0 0 0 0 0 0z"/><path d="M455.38 11.01h0 0 0 0 0 0 0 0 0zm-.01 0h0 0c-66.15 1.51-135.55 22.57-166.56 40C156.44 125.42 99.17 189.67 10.14 286.36l92.89-66.52h0c-43.26 59.29-74.07 146.71-78.62 246.47-2.09 45.77 3.26 129.85 29.71 193.18 32.74 78.41 68.62 121.04 107.81 151.59l2.89 2.23 20.14 13.45c85.87 29.99 146.85 40.19 218.61 40.19h0c21.09 0 41.06-2.07 59.82-6.52h0c57.69-13.69 107.73-50.56 155.86-99.29h.01c26.04-29.88 48.6-68.5 66.47-120.11 20.68-59.71 27.62-107.74 19.14-160.39h-.01c-30.65 42.52-57.85 45.27-59.47 45.45h0c-.29 0 57.17-99.23 76.9-181.46h-.01c-70.66 60.59-136.05 96.62-195.72 110.26-38.21 8.73-72.94 14.18-104.66 14.18-39.86 0-74.71-7.46-104.56-22.39-33.32-72.62-40.56-136.94-19.61-192.07 9.55-25.12 24.05-48.54 41.4-71.19L455.37 11.01h0 0zm470.99 254.4h0 0-.01 0 0 0 0 0 0 0 0 0 0 0 0 0 0 0 0 0c34.24 115.81 50.77 173.95-2.18 304.98-60.59 149.96-157.85 189.24-239.23 195.66h.01c-60.49 67.45-128.01 126.09-210.59 145.69h0c-22.93 5.44-46.64 7.81-70.8 7.81h0c-17.45 0-35.3-1.25-53.47-3.51l-75.29-10.73c37.98 31.92 129.78 75.56 179.1 84.7 40.84 7.57 100.76 8.83 138.16 8.83 202.76 0 351.36-142.96 413.05-345.72 38.39-126.16 7.52-271.4-14.15-373.68l-1.62 113.45-62.98-127.48h0 0z"/></g><path d="M275.62-444.85h0 0 0 0 0 0 0 0 0m-1.87 11.92h0 0 0 0 0 0 0 0z"/></g></svg>