
<svg xmlns="http://www.w3.org/2000/svg" viewBox="0 0 1024 1024"><path fill="#00AFFF" d="M995.328 302.012c20.31-55.842 29.423-106.599 27.41-150.255-2.049-47.719-18.262-86.29-46.695-114.688-56.866-55.842-202.001-45.705-362.394 24.337-11.162-1.024-22.357-1.024-34.509-1.024-54.818 0-108.646 9.148-159.402 27.409a454.963 454.963 0 0 0-137.012 76.151A481.553 481.553 0 0 0 115.2 422.81l-9.114 35.498 22.324-28.399c59.904-76.117 119.808-130.97 189.815-172.578l-31.47 31.471a1103.258 1103.258 0 0 0-160.36 203.025A1009.425 1009.425 0 0 0 30.96 693.828C10.649 756.77-.512 815.65.512 865.382c1.024 50.757 13.175 89.327 35.499 111.685 30.48 31.436 74.137 46.694 125.883 46.694 56.867 0 125.884-18.295 203.025-55.842 66.014 33.485 138.07 49.732 213.197 49.732a477.696 477.696 0 0 0 451.72-322.799l3.073-10.171h-269.04v2.048a200.43 200.43 0 0 1-175.615 104.55 199.646 199.646 0 0 1-175.616-104.55 203.64 203.64 0 0 1-23.347-87.314h663.893l1.024-7.1a481.075 481.075 0 0 0-58.88-290.337zm-859.819 413.15a476.16 476.16 0 0 0 184.764 224.324c-45.67 19.285-86.289 30.447-120.832 32.495-37.547 3.072-65.946-6.11-85.23-24.371-38.572-38.571-30.448-122.812 21.298-232.448zM970.957 264.43a493.158 493.158 0 0 0-88.303-95.403 460.834 460.834 0 0 0-108.612-67.003c88.303-34.51 155.306-35.533 189.78-1.024 29.458 30.446 32.53 87.313 7.169 163.43zM390.315 460.356c9.147-96.426 91.375-171.554 188.825-171.554s179.644 75.093 188.792 171.554H390.315z"/></svg>