<?xml version="1.0" standalone="no"?><!DOCTYPE svg PUBLIC "-//W3C//DTD SVG 1.1//EN" "http://www.w3.org/Graphics/SVG/1.1/DTD/svg11.dtd"><svg t="1658675654859" class="icon" viewBox="0 0 1024 1024" version="1.1" xmlns="http://www.w3.org/2000/svg" p-id="13513" xmlns:xlink="http://www.w3.org/1999/xlink" width="200" height="200"><defs><style type="text/css">@font-face { font-family: feedback-iconfont; src: url("//at.alicdn.com/t/font_1031158_u69w8yhxdu.woff2?t=1630033759944") format("woff2"), url("//at.alicdn.com/t/font_1031158_u69w8yhxdu.woff?t=1630033759944") format("woff"), url("//at.alicdn.com/t/font_1031158_u69w8yhxdu.ttf?t=1630033759944") format("truetype"); }
</style></defs><path d="M256.426667 213.333333C257.493333 164.992 305.749333 128.469333 362.709333 128.426667L875.008 128.213333a106.453333 106.453333 0 0 1 106.410667 106.752v383.829334c0 53.973333-43.52 106.794667-84.864 106.794666a21.76 21.76 0 0 1-0.64 0 127.914667 127.914667 0 0 1-127.658667 123.562667h-276.650667c-33.493333 0-81.28 24.234667-101.162666 51.413333l-21.034667 28.629334c-34.176 46.634667-94.890667 38.272-114.517333-16.341334l-7.765334-21.546666c-9.472-26.410667-43.434667-48.725333-71.808-47.146667l-2.005333 0.128A122.368 122.368 0 0 1 42.666667 721.066667V341.418667A127.914667 127.914667 0 0 1 170.453333 213.333333H256.426667zM896 682.88a21.76 21.76 0 0 1 0.554667 0c15.786667 0 42.197333-32.085333 42.197333-64.128V234.922667c0-35.498667-28.501333-64.085333-63.701333-64.085334l-512.298667 0.298667c-35.242667 0-62.293333 20.053333-63.658667 42.197333h469.12A127.658667 127.658667 0 0 1 896 341.418667v341.461333zM85.333333 341.418667V721.066667c0 47.573333 38.314667 83.2 85.546667 80.554666l2.048-0.085333c47.146667-2.688 98.474667 31.018667 114.346667 75.264l7.765333 21.546667c8.021333 22.357333 25.898667 24.746667 39.978667 5.546666l20.992-28.586666C384 837.12 444.586667 806.4 491.605333 806.4h276.650667A85.248 85.248 0 0 0 853.333333 721.066667V341.418667A84.992 84.992 0 0 0 768.213333 256H170.453333A85.248 85.248 0 0 0 85.333333 341.418667z" p-id="13514" fill="#3eaf7c"></path><path d="M298.666667 554.666667m-42.666667 0a42.666667 42.666667 0 1 0 85.333333 0 42.666667 42.666667 0 1 0-85.333333 0Z" p-id="13515" fill="#3eaf7c"></path><path d="M469.333333 554.666667m-42.666666 0a42.666667 42.666667 0 1 0 85.333333 0 42.666667 42.666667 0 1 0-85.333333 0Z" p-id="13516" fill="#3eaf7c"></path><path d="M640 554.666667m-42.666667 0a42.666667 42.666667 0 1 0 85.333334 0 42.666667 42.666667 0 1 0-85.333334 0Z" p-id="13517" fill="#3eaf7c"></path></svg>