
<svg xmlns="http://www.w3.org/2000/svg" xmlns:xlink="http://www.w3.org/1999/xlink" viewBox="0 0 1024 1024" xmlns:v="https://vecta.io/nano"><defs><filter id="A" filterUnits="userSpaceOnUse" x="-244.4" y="-244.6" width="1513.3" height="1637.6"><feColorMatrix values="1 0 0 0 0  0 1 0 0 0  0 0 1 0 0  0 0 0 1 0"/></filter></defs><mask maskUnits="userSpaceOnUse" x="-244.4" y="-244.6" width="1513.3" height="1637.6" id="B"><circle cx="512.3" cy="512" r="504.4" fill="#ff9800" filter="url(#A)"/></mask><g mask="url(#B)"><linearGradient id="C" gradientUnits="userSpaceOnUse" x1="512.283" y1="-244.616" x2="512.283" y2="1268.713"><stop offset="0" stop-color="#06f3d0"/><stop offset=".562" stop-color="#0880d5"/><stop offset="1" stop-color="#0a2bd8"/></linearGradient><path d="M-244.4-244.6h1513.3v1513.3H-244.4z" fill="url(#C)"/><defs><path id="D" d="M-244.4-244.6h1513.3v1513.3H-244.4z"/></defs><clipPath id="E"><use xlink:href="#D"/></clipPath><g clip-path="url(#E)"><linearGradient id="F" gradientUnits="userSpaceOnUse" x1="382.292" y1="585.765" x2="683.836" y2="887.313"><stop offset="0" stop-color="#00445f" stop-opacity=".4"/><stop offset="1" stop-color="#00445f" stop-opacity="0"/></linearGradient><path d="M528.5 376.9c101.9-62.1 222.9-95.1 351-88.2 1.9.1 3.3 1 4 2.3l385.3 385.3v592.3H786.7 269c-56.4-61.6-98.1-142.8-115.6-235.7-15.7-83.9-9.5-166 14.1-238.5 8.2-25 .5-52.7-17.3-72.1-41.9-45.7-65.5-108.1-60.4-174.9 9.8-127.9 121.3-223.7 249-213.9 41.6 3.2 79.7 17.2 112 39 23.2 15.7 53.9 19 77.7 4.4z" fill="url(#F)"/><path d="M879.7 298.9c5.7-1.6 5-9.8-.9-10.1-128.1-6.9-249.1 26.1-351 88.2-23.8 14.5-54.6 11.3-77.7-4.3-32.2-21.8-70.4-35.8-112-39-127.7-9.8-239.2 86-249 213.9-5.1 66.8 18.5 129.1 60.4 174.9 17.8 19.4 25.5 47.1 17.3 72.1C143.2 867 137 949.1 152.7 1033c43.7 233 239.9 391.8 438.2 354.6s323.7-256.2 280-489.3C838.2 724.1 720.4 591.4 580.1 551c-16.8-4.8-29.4-19.2-33.2-36.2-3.3-15 .4-30.8 11.8-41 91.3-81 200.8-141.6 321-174.9zm-512 217.7c15.4 1.2 28.9-10.4 30.1-25.8s-10.4-28.9-25.8-30.1-28.9 10.4-30.1 25.8c-1.2 15.5 10.4 28.9 25.8 30.1z" fill-rule="evenodd" fill="#fcfcfc"/><radialGradient id="G" cx=".432" cy="1025" r="3.503" gradientTransform="matrix(431.9998 431.9998 431.9998 -431.9998 -443230.8125 442368.8125)" gradientUnits="userSpaceOnUse"><stop offset=".141" stop-color="#fff" stop-opacity=".3"/><stop offset=".713" stop-color="#fff" stop-opacity="0"/></radialGradient><path d="M-244.4-244.6h1513.3v1513.3H-244.4z" fill="url(#G)"/></g></g></svg>