
<svg id="图层_1" xmlns="http://www.w3.org/2000/svg" viewBox="0 0 1024 1024"><style>.st1{fill:#94ff00}.st2{fill:#151515}</style><circle cx="512.5" cy="511.9" r="508.1" fill="#f4f4f4"/><path d="M510.8 886c-9.2 0-18.4.8-27.5-.1-105.6-11-137.4-65.5-93.9-161.6 17.4-38.4 38.6-74.8 71.4-102.4 33.4-28.1 66.6-29.3 99.5-1 50.4 43.5 79.5 100.3 92.5 164.9 7.1 35.1-9.1 61.1-39.7 78.2-31.7 17.8-66.3 23.7-102.3 22zM284.4 591.6c-115.1-.2-182.7-84.9-159.5-184.8 11.3-48.5 23-96.8 34.4-145.2 4.1-17.5 10.6-24.6 29-12.5 41 26.7 87.3 41 133.8 55.1 51.3 15.6 94.4 45.5 128.1 87.4 43 53.6 36 109.3-19.5 149.7-46.9 33.9-100.5 49.6-146.3 50.3z"/><circle class="st1" cx="292.9" cy="444.6" r="61.6"/><circle class="st2" cx="292.9" cy="444.6" r="28.9"/><g><path d="M596.4 541.2c-55.6-40.4-62.6-96.1-19.5-149.7 33.7-41.9 76.8-71.8 128.1-87.4 46.5-14.2 92.8-28.4 133.8-55.1 18.4-12 24.9-4.9 29 12.5 11.4 48.4 23.1 96.8 34.4 145.2 23.2 99.9-44.4 184.6-159.5 184.8-45.8-.6-99.4-16.3-146.3-50.3z"/><circle class="st1" cx="721.6" cy="444.6" r="61.6"/><circle class="st2" cx="721.6" cy="444.6" r="28.9"/></g></svg>