
<svg xmlns="http://www.w3.org/2000/svg" viewBox="0 0 1024 1024"><path fill="#df4e02" d="M5.782 570.057a432.96 432.96 0 0 1-.724-7.017l.724 7.017zM18.25 387.33zM638.885 17.471zM455.73 5.18zm197.706 16.206l4.135 1.19-4.135-1.19zM75.916 776.807l-1.173-1.938 1.173 1.938zm16.394 25.437zM444.478 6.584l3.79-.482-3.79.483zM83.908 789.612a605.561 605.561 0 0 1-3.125-4.884l3.124 4.884zm35.54-601.917l3.104-3.694-3.104 3.694zM268.868 64.27a534.637 534.637 0 0 1 6.065-3.266l-6.065 3.266zM22.172 372.775l1.056-3.677-1.056 3.677zM282.878 56.902l2.142-1.086-2.142 1.086zm575.028 833.705a512.736 512.736 0 0 0 105.235-134.77 722.655 722.655 0 0 1-21.099 33.52c-23.415 36.956-51.564 71.1-84.136 101.25zM171.683 133.242a512.012 512.012 0 0 1 93.329-66.856A508.36 508.36 0 0 0 126.64 179.175a515.369 515.369 0 0 1 45.042-45.933zm464.736-116.39A507.386 507.386 0 0 0 466.89 4.026 513.667 513.667 0 0 1 636.42 16.85zM17.513 390.233a507.54 507.54 0 0 0-12.862 168.7 514.096 514.096 0 0 1 12.862-168.7zm496.121 633.727c51.856-11.776 98.512-29.842 139.698-52.176 67.522-38.137 127.864-91.96 167.673-151.354 29.164-44.984 45.795-91.386 49.036-133.334 1.14-21.955-1.456-43.69-8.445-64.751-16.152-48.582-59.78-83.603-150.102-86.195-9.31-49.672-32.953-95.292-72.189-136.45l-4.068 3.661c14.796 21.427 26.065 46.702 29.705 75.584 2.687 18.81 1.747 37.816-2.833 57.005l-.258 1.257-.033.05c-.12.494-.2.985-.324 1.48a183.455 183.455 0 0 1-12.03 16.818l-1.128 1.39a183.599 183.599 0 0 1-5.353 6.26l-1.764 1.989a185.589 185.589 0 0 1-7.217 7.4l-.1.104.016-.025c-22.679 21.968-52.958 40.096-93.104 53.212l-5.44 2.309c-29.398 13.993-53.779 32.005-73.704 53.574-25.08 27.887-44.348 63.012-58.17 104.943l-73.109-58.133 2.48-11.199.116-1.06c1.743.253 4.06.29 6.76.112 17.52-2.82 36.073-9.097 50.412-19.826a81.917 81.917 0 0 0 2.105-1.705l.279-.237c12.167-10.441 21.564-25.184 22.878-45.33l.113-1.73c.079-1.705.12-3.378.137-5.02 0-.296.017-.591.017-.887v-.037c-.05-11.74-1.993-23.832-6.057-35.155l-275.806 248.36a515.98 515.98 0 0 1-40.084-50.528c119.51 172.17 338.29 259.546 552.34 202.082 1.053-.279 2.089-.599 3.137-.886a466.16 466.16 0 0 1-8.303 2.11c-39.792 10-82.28 15.682-127.281 16.318zm505.244-442.552c-8.382 60.663-27.022 116.183-52.463 168.26 41.24-78.832 62.089-168.522 57.692-260.628.998 30.903-.787 61.831-5.23 92.368zM667.92 25.73l.116.037c-.037-.017-.075-.025-.116-.038zM965.423 748.5l-.145.292-.562 4.072.013-.029.694-4.334z"/><path fill="#f5671b" d="M409.64 606.514c-2.937-8.183-6.993-15.953-12.251-22.908-8.07-10.15-17.517-16.876-25.529-21.34-18.582-9.305-43.611-12.026-76.132-3.59-23.82 6.132-42.921 30.89-47.164 84.31l-8.137 1.885-64.971-57.426 2.475-23.698 106.24-93.74-11.318-12.501c-5.07-13.794-3.894-31.955 2.475-53.77 74.993-97.043 152.344-171.329 232.407-218.609 9.551 6.248 21.224 24.29 35.018 53.77 3.772-32.663-.117-58.957-18.749-74.993-14.975-10.02-31.602 19.93-48.698 28.773 32.662-56.598 45.633-73.108 92.443-42.567 60.608-32.188 133.837-55.067 218.38-69.568A507.898 507.898 0 0 0 668.037 25.77l-.116-.038a502.267 502.267 0 0 0-10.35-3.153l-4.135-1.19-6.393-1.78a499.702 499.702 0 0 0-8.158-2.134l-2.466-.62A513.667 513.667 0 0 0 466.89 4.031l-.665.066a522.9 522.9 0 0 0-10.5 1.086l-7.458.924-3.79.482A508.368 508.368 0 0 0 285.02 55.816l-2.142 1.086a471.74 471.74 0 0 0-14.01 7.367l-3.856 2.117a512.698 512.698 0 0 0-93.33 66.856 515.988 515.988 0 0 0-45.046 45.933L122.552 184l-3.104 3.694a507.577 507.577 0 0 0-97.28 185.081 491.733 491.733 0 0 0-3.923 14.555l-.732 2.904a513.871 513.871 0 0 0-12.862 168.7l.403 4.106A508.405 508.405 0 0 0 74.74 774.869l1.173 1.938a505.98 505.98 0 0 0 4.871 7.92 605.571 605.571 0 0 0 3.124 4.884l3.203 4.934a577.287 577.287 0 0 0 5.2 7.703l1.44 2.097a514.861 514.861 0 0 0 40.083 50.529l275.806-248.36zm9.425-257.138c-10.96 18.636-21.651 37.272-31.394 55.85 9.518-17.625 20.683-36.719 31.394-55.85zm192.34 25.259l.866.886a226.95 226.95 0 0 1 7.392 7.99l.87.978a211.575 211.575 0 0 1 14.696 18.877l4.068-3.66a372.164 372.164 0 0 0-36.523-33.466 236.42 236.42 0 0 1 8.632 8.395z"/><g fill="#fbf3ec"><path d="M661.494 538.747l.324-1.481c-.033.062-.075.112-.104.17l-.22 1.31zm280.548 250.606c-36.323 54.252-76.515 97.53-120.005 131.429a495.027 495.027 0 0 0 35.87-30.175c32.57-30.15 60.72-64.294 84.135-101.254zm-526.5-141.74l-.112 1.73c.025-.395.079-.774.1-1.173l.012-.558zm119.831-19.41c1.793-.799 3.615-1.552 5.441-2.309l-2.42.816c-1.033.474-2.002 1.002-3.02 1.493zm126.732-92.243c4.58-19.19 5.516-38.196 2.833-57.006 2.23 17.666 1.597 36.685-2.833 57.006zm-59.33-169.724c220.684 35.533 401.219 108.063 362.504 382.55l.145-.29c39.577-244.205-107.642-345.596-362.65-382.26zm50.557 605.549c-41.186 22.334-87.842 40.4-139.698 52.176 47.13-8.532 94.985-26.918 139.698-52.176zM339.751 716.436c12.45-.815 33.586-6.502 50.412-19.825-14.339 10.732-32.891 17.009-50.412 19.825zm121.919-34.663c-26.843 29.047-45.7 64.464-58.17 104.943 13.822-41.927 33.09-77.052 58.17-104.943zm51.964 342.188c45-.636 87.489-6.323 127.294-16.315-40.85 9.938-83.362 15.138-127.294 16.315zm356.402-336.86c-3.24 41.948-19.87 88.346-49.035 133.334 28.71-42.83 46.71-88.545 49.035-133.334zm-454.344-45.395c0 .295-.017.59-.017.886l.017-.886zm-23.424 53.203l.279-.237-.279.237z"/><path d="M567.749 150.102c-46.81-30.541-59.78-14.031-92.443 42.567 17.096-8.844 33.723-38.794 48.698-28.773 18.632 16.036 22.521 42.33 18.749 74.992-13.794-29.48-25.467-47.521-35.018-53.77-80.063 47.285-157.414 121.57-232.407 218.61-6.369 21.814-7.546 39.972-2.475 53.77l11.319 12.5-106.241 93.74-2.475 23.699 64.971 57.426 8.137-1.885c4.247-53.42 23.345-78.179 47.164-84.31 32.52-8.432 57.55-5.716 76.132 3.59-6.273-3.494-11.664-5.612-14.817-6.893l34.551-59.194c58.487-64.027 128.762-107.418 211.184-129.94 151.637-36.551 293.132-24.288 416.703 73.463 6.231 50.454 5.516 97.439-.603 141.707a524.212 524.212 0 0 0 5.229-92.368c-4.871-150.813-75.929-300.915-226.713-401.19a588.294 588.294 0 0 0-11.26-7.318c-84.548 14.514-157.773 37.388-218.385 69.577zM387.67 405.23a635.824 635.824 0 0 0-16.718 34.119l-26.173-8.137-18.748 5.661c30.894-38.32 61.906-66.976 93.033-87.492L387.67 405.23zm9.719 178.376c5.258 6.955 9.314 14.725 12.25 22.908 4.064 11.327 6.003 23.415 6.057 35.154.046-26.56-8.008-45.104-18.307-58.062z"/></g><path fill="#dba789" d="M964.717 752.86l.562-4.073c38.72-274.488-141.82-347.022-362.505-382.55a372.205 372.205 0 0 1 36.523 33.465c39.24 41.157 62.88 86.773 72.189 136.449 90.322 2.592 133.95 37.613 150.102 86.195 6.992 21.06 9.588 42.796 8.444 64.751-2.33 44.793-20.329 90.505-49.035 133.334-39.805 59.39-100.147 113.217-167.673 151.354-44.714 25.254-92.568 43.644-139.698 52.176 43.935-1.177 86.444-6.377 127.293-16.315l8.303-2.109c61.873-16.127 119.802-43.453 172.81-84.76 43.491-33.893 83.679-77.176 120.006-131.428a719.157 719.157 0 0 0 21.099-33.52l1.505-2.487c.03-.158.05-.316.075-.483z"/><g fill="#f0dbcb"><path d="M1019.477 439.698c-123.57-97.75-265.066-110.014-416.703-73.462 255.008 36.664 402.223 138.055 362.65 382.26l-.694 4.334-.083.516c.607-1.219 1.164-2.463 1.763-3.681 25.442-52.081 44.086-107.598 52.464-168.26 6.119-44.268 6.834-91.249.603-141.707zm-378.258 125.5zm7.117-8.244z"/><path d="M611.406 374.635l.865.886-.865-.886zm9.13 9.858l-.869-.977.87.977zm28.928 171.072a183.455 183.455 0 0 0 12.03-16.818l.22-1.31a145.272 145.272 0 0 1-12.25 18.128zM391.59 496.18l-34.551 59.193c3.153 1.286 8.544 3.399 14.817 6.893 8.012 4.464 17.459 11.186 25.529 21.34 10.303 12.958 18.357 31.502 18.303 58.062v.038c0 .29-.013.594-.017.886a138.355 138.355 0 0 1-.137 5.02l-.013.558c-.02.403-.075.782-.1 1.173-1.314 20.15-10.711 34.892-22.878 45.33l-.28.236a73.92 73.92 0 0 1-2.104 1.706c-16.826 13.32-37.962 19.006-50.412 19.825-2.7.18-5.017.138-6.76-.112l-.117 1.06-2.479 11.199 73.108 58.129c12.472-40.475 31.332-75.891 58.171-104.943 19.925-21.569 44.302-39.58 73.703-53.574l3.02-1.49c.824-.262 1.602-.549 2.421-.815 40.142-13.116 70.425-31.244 93.104-53.212 41.016-58.72 29.456-127.81-31.14-206.442-82.426 22.521-152.701 65.912-211.188 129.94z"/></g><path fill="#e8b293" d="M633.918 572.682l-.016.025.1-.104a180.747 180.747 0 0 0 7.217-7.4l1.764-1.988 5.353-6.26 1.128-1.39a144.045 144.045 0 0 0 12.246-18.129c.033-.058.075-.108.104-.17a.345.345 0 0 0 .033-.05l.258-1.256c4.43-20.321 5.063-39.34 2.833-57.006-3.64-28.886-14.909-54.156-29.705-75.583a211.575 211.575 0 0 0-14.697-18.878l-.869-.977a231.001 231.001 0 0 0-8.257-8.877 243.53 243.53 0 0 0-8.632-8.399c60.596 78.633 72.156 147.723 31.14 206.442z"/><path fill="#cf4e08" d="M326.028 436.87l18.748-5.662 26.173 8.136a637.363 637.363 0 0 1 16.718-34.118c9.743-18.578 20.433-37.214 31.394-55.85-31.127 20.517-62.139 49.173-93.033 87.493z"/></svg>