<?xml version="1.0" encoding="utf-8"?>
<!-- Generator: Adobe Illustrator 26.0.2, SVG Export Plug-In . SVG Version: 6.00 Build 0)  -->
<svg version="1.1" id="图层_1" xmlns="http://www.w3.org/2000/svg" xmlns:xlink="http://www.w3.org/1999/xlink" x="0px" y="0px"
	 viewBox="0 0 1024 1024" style="enable-background:new 0 0 1024 1024;" xml:space="preserve">
<style type="text/css">
	.st0{fill:#666666;}
</style>
<path class="st0" d="M999,873c-6.3-16.4-61.1-37-78.3-69.8c-17.2-32.8-3.2-50.5-29.7-67c-3.5-2.1-7.5-3.7-11.8-4.4
	c9.3-21.5,9.6-51,8.4-89.6c-3.2-101.2-53.8-161.8-81.2-191.5c-32.6-35.5-43.9-48.8-69-83.2c-24.3-33.3-50-74-50.9-118
	c-1.1-52-3.2-111.7-31.4-156.8c-28.1-45-98.3-89.6-197.6-65.6c-106,25.5-108.6,103.4-113.3,160.8c-4.7,57.4,25.4,98.3,0.1,170.9
	c-25.2,72.6-69.1,99.7-90.1,136.1c-52.2,90.3-63.3,98.2-86.2,144.7c-25.3,51.3-6.3,81.5-6.3,81.5l1.1,2.5c-9,14.6-13.8,29.1-24.5,33
	c-21.4,7.8-72.1-4-89.4,11c-17.2,15.2,8.4,106.4-3.2,123.2c-11.4,16.8-21.9,16.4-21.9,43.7c0,27.3,34.5,24.6,169.4,64.3
	c134.8,39.6,160,28.7,191.3-5.5c5.2-5.6,8.5-11.9,10.5-18.4c41.2-3.2,82.9-6,107.2-6.2c53.8-0.2,129.2,14.6,164.3,22.1
	c5,11.9,12.4,21.4,22.3,25.9c28.2,12.3,94.1,11,133.4-21.8c39.2-32.8,138-75.1,150.6-86.1C985.4,897.6,1005.2,889.3,999,873L999,873
	z M434.5,242.3c-1.5-15.6-11.2-27.3-21.8-26.7c-10.6,0.7-18,14-16.5,29.3c0.8,8.6,4.2,16.1,8.9,20.9l-4.7,3.7
	c-7.6-8.7-14.2-22.7-15.8-39.8c-2.8-29.5,10.2-52.6,24-53.6h1v-8.8v8.8c13.3,0,30.2,20.3,32.9,49.5c0.5,5.8,0.4,11.8-0.1,17.6
	c-2.6,0.9-5.2,2-7.6,3.1C434.6,245.2,434.6,243.7,434.5,242.3L434.5,242.3z M415.8,263.8l-0.9,0.8L415.8,263.8z M412.4,266.4
	l-0.9,0.8C411.5,266.4,411.5,266.4,412.4,266.4z M395.2,279.6c3.2-2.6,5.7-5.2,8.8-7.6C400.9,275,398.4,277.5,395.2,279.6z
	 M398,277.4c2.9-2.4,5.9-5.3,8.8-7.6C403.8,272.6,400.9,275,398,277.4z M420.5,299.8c3.4-2.5,6.8-5.2,9.8-7.6
	c14.6-11.8,24.5-18.9,37.7-19.4c1.5-0.1,3.1-0.1,4.6-0.1c22.3,0,44.9,6.9,75.6,23.4l7.8,4c-8,6.3-16.1,12.4-24.5,18.3
	c-21.8,15.3-37.9,25-46.3,29c-6.2-2.4-17.4-7.7-34.1-17.8c-18.2-11-32.3-21.3-35.7-24.4C416.7,303.3,418.4,301.5,420.5,299.8z
	 M552,258.8c2.7,2.2,6,4.6,8.8,6.8C558,263.3,555.1,261,552,258.8L552,258.8z M554.3,213.1c-13.2-0.6-25.6,11.8-27.8,27.4
	c-0.3,2.5-0.4,4.8-0.1,7.3c-4.9-1.7-9.9-3.2-15-4.6c-0.5-5.4-0.5-10.9,0.2-16.2c2-14.3,8.4-27.7,17.9-37.4
	c8.5-8.6,18.3-13.3,27.8-13.3h1.4c7.1,0.3,13.6,3.4,18.9,9c9.8,10.1,14.2,26.4,11.8,43.7c-2,14.3-8.4,27.7-17.8,37.4
	c-0.4,0.3-0.9,0.8-1.2,1.2l-1.2-0.7c-1.9-1-3.8-2-5.8-3c5.8-5,9.8-12.5,11.1-21.2C576.3,226.9,567.5,213.7,554.3,213.1L554.3,213.1z
	 M566.1,268.8c-2.9-2.2-5.9-5.4-8.8-7.6C560.7,263.4,563.7,265.7,566.1,268.8z M547.9,258.6c-2.7-1.6-6.1-3-8.8-4.6
	C541.9,255.6,544.5,257.2,547.9,258.6z M542.8,256.1c-3.2-1.6-5.6-2.2-8.7-3.8C537.3,253.9,540.5,255.5,542.8,256.1L542.8,256.1z
	 M505.5,244.6c0.9,0,1.7,0.8,3.5,0.8C507.2,244.6,506.3,244.6,505.5,244.6L505.5,244.6z M578.9,275.3c-2.9-2.4-5.9-5.3-8.8-7.6
	C573,270.5,576,272.8,578.9,275.3z M589.5,280.2c-2.8-2.4-5.8-4.7-8.8-6.8C583.9,275.7,586.4,278,589.5,280.2L589.5,280.2z
	 M586.1,279.1c-2.6-2.4-5.8-5.3-8.8-7.6C580.4,273.7,583.5,276.8,586.1,279.1z M622.1,879.4c-24.6,19.6-43.6,27.7-57.4,35.4
	c-25.9,14.3-67.7,23.1-111.1,17.4c-27.6-3.6-52.2-13.6-73.9-25c-4-7.1-8.8-13.9-14.3-20.3c-9.6-11.1-74.9-91.5-115.6-141.7
	c-2.2-9.9-3.2-19.8-3.2-29.9c0.8-58.8,19.6-127.4,34.9-143.6c4.7-4.9,38.9-89.9,47.1-108c14.9-32.8,37.9-71.4,50-94
	c8.2-18.7,9.5-31.7,8.4-40.5c13.5,12.3,77.1,54.1,99.9,54.1h0.4c19-0.3,91.4-51.8,116.2-75.5c2.4,8.6,14.6,25.6,22.3,42.2
	c22.8,48,49.3,137.9,91.5,187.7c2.8,3.5,10,15.1,11.4,19.7c16.5,51.5,13.2,90.5,2.9,166.9c-5.3-1.6-10.9-2.6-16.6-2.9
	c-28.9-2-39.2,8.3-39.2,8.3s-1.6,56.7-4.8,109.1c-2.5,2.4-5.1,4.8-7.6,7.2C648.7,858.6,634.9,869.7,622.1,879.4L622.1,879.4z"/>
</svg>
