<?xml version="1.0" encoding="utf-8"?>
<!-- Generator: Adobe Illustrator 26.0.2, SVG Export Plug-In . SVG Version: 6.00 Build 0)  -->
<svg version="1.1" id="图层_1" xmlns="http://www.w3.org/2000/svg" xmlns:xlink="http://www.w3.org/1999/xlink" x="0px" y="0px"
	 viewBox="0 0 1024 1024" style="enable-background:new 0 0 1024 1024;" xml:space="preserve">
<style type="text/css">
	.st0{fill:#666666;}
</style>
<path class="st0" d="M960,750.5c-1.4,3.9-23,74-76.1,146.2c-46,62.2-93.5,124.9-168.5,126c-73.8,1.2-97.4-41-181.7-41
	c-84.2,0-110.6,39.9-180.3,42.2c-72.1,2.7-127.6-68-173.7-129.9C85.4,767.3,12.9,534.7,110.2,378.9c47.9-78,134-127.5,227.7-128.9
	c70.6-1.2,137.9,44.5,180.8,44.5c44.1,0,125.4-55.4,211.2-47.1c35.9,1.4,136.4,14,201.1,101.3c-5.1,3.2-120.2,66.4-118.9,195.1
	C813.8,699.1,958.4,750,960,750.5 M673.7,164.2C712.4,120.3,737.8,59.9,731.1,0c-55.2,2-122.5,34.1-162.5,77.8
	c-35.4,38.1-66.5,99.4-57.8,158.6C572.2,239.9,635.2,206.5,673.7,164.2"/>
</svg>
