
<svg xmlns="http://www.w3.org/2000/svg" viewBox="0 0 1024 1024"><path fill="#4795F4" d="M349.867 713.387c5.461-22.3 13.767-43.805 24.69-63.716-56.548-40.163-93.412-106.268-93.412-180.907 0-122.424 99.328-221.752 221.753-221.752S724.65 346.34 724.65 468.764c0 24.008-3.869 47.104-10.81 68.722 46.422 21.163 85.903 55.41 113.096 98.19 33.45 1.935 65.877 12.175 94.208 29.696 28.103-59.62 43.804-126.293 43.804-196.494C964.948 213.788 758.1 6.94 503.011 6.94S40.96 213.675 40.96 468.764c0 159.062 80.44 299.35 202.752 382.408 7.054-61.668 47.673-114.916 106.155-137.785z"/><path fill="#E5E5E5" d="M978.261 808.846c-11.946-84.31-83.854-149.618-171.121-150.87-27.193-46.193-69.177-80.668-117.874-99.213-13.654-5.234-27.762-8.989-42.326-11.606-13.312-2.389-26.737-3.982-40.504-3.982-111.161 0-205.483 77.141-227.897 184.775-57.344 19.115-98.873 73.16-98.873 136.875 0 79.53 64.74 144.384 144.27 144.384 28.672 0 55.979-8.306 79.644-24.007 31.858 15.701 67.13 24.007 102.856 24.007 37.091 0 73.841-8.989 106.61-25.941 27.534 16.952 58.822 25.94 91.59 25.94 91.705 0 167.14-70.655 174.763-160.426.455-5.006.797-10.126.797-15.246.113-8.42-.683-16.612-1.935-24.69z"/></svg>