
<svg xmlns="http://www.w3.org/2000/svg" viewBox="0 0 1024 1024"><path fill="#2EB34C" d="M789.53 96.886H236.65c-76.25 0-138.15 61.91-138.15 138.15v552.7c0 76.34 61.9 138.24 138.15 138.24h552.7c76.34 0 138.15-61.9 138.15-138.15v-552.79c.09-76.24-61.81-138.15-137.97-138.15zm12.03 304.71l-327.84 328.03c-8.24 8.24-21.56 8.24-29.8 0l-6.57-6.66-7.13-7.22-30.91-30.91c-.19-.19-.28-.46-.46-.65l-141.93-142.86c-8.24-8.24-8.24-21.56 0-29.8l44.69-44.79c8.24-8.24 21.56-8.24 29.8 0l127.51 128.53 268.16-268.25c8.24-8.24 21.56-8.24 29.8 0l44.69 44.69c8.32 8.24 8.32 21.66-.01 29.89z"/></svg>