
<svg xmlns="http://www.w3.org/2000/svg" viewBox="0 0 1024 1024"><path d="M115.2 217.6a102.4 102.4 0 0 1 102.4-102.4h115.2a38.4 38.4 0 0 1 0 76.8H217.6a25.6 25.6 0 0 0-25.6 25.6v115.2a38.4 38.4 0 0 1-76.8 0V217.6zm0 588.8a102.4 102.4 0 0 0 102.4 102.4h115.2a38.4 38.4 0 0 0 0-76.8H217.6a25.6 25.6 0 0 1-25.6-25.6V691.2a38.4 38.4 0 0 0-76.8 0v115.2zm691.2-691.2a102.4 102.4 0 0 1 102.4 102.4v115.2a38.4 38.4 0 0 1-76.8 0V217.6a25.6 25.6 0 0 0-25.6-25.6H691.2a38.4 38.4 0 0 1 0-76.8h115.2zM204.8 512a38.4 38.4 0 0 1 38.4-38.4h537.6a38.4 38.4 0 0 1 0 76.8H243.2a38.4 38.4 0 0 1-38.4-38.4zm601.6 396.8a102.4 102.4 0 0 0 102.4-102.4V691.2a38.4 38.4 0 0 0-76.8 0v115.2a25.6 25.6 0 0 1-25.6 25.6H691.2a38.4 38.4 0 0 0 0 76.8h115.2z"/></svg>