
<?xml version="1.0" encoding="utf-8"?>
<!-- Generator: Adobe Illustrator 26.2.1, SVG Export Plug-In . SVG Version: 6.00 Build 0)  -->
<svg version="1.1" id="图层_1" xmlns="http://www.w3.org/2000/svg" xmlns:xlink="http://www.w3.org/1999/xlink" x="0px" y="0px"
	 viewBox="0 0 1024 1024" style="enable-background:new 0 0 1024 1024;" xml:space="preserve">
<style type="text/css">
	.st0{fill:#1496DA;}
</style>
<path class="st0" d="M101.56,536.98C93.28,457.15,85.6,379.8,77.13,302.54c5.4-75.02-91.37-330.84,64.03-266.69
	c343.89,188.7,391.16,191.83,735.91,4.48c59.49-29.78,101.97,3.75,92.62,68.39c-10.44,143.73-38.38,283.69-42.83,427.94
	c91.22-24.81,141.39,66.43,53.97,98.76c-20.74,5.31-52.47,8.83-58.47,22.37c-83.53,213.57,97.96,62.33,101.13,190.88
	c-22.77,96.5-156.29-11.55-211.58,44.26c-117.68,138.34-480.54,139.35-599.13-0.84c-10.26-12.13-35.53-16.74-53.5-16.07
	c-33.26,1.25-66.8,14.81-99.21,11.89c-60.83-10.98-67.86-61.75-16.47-94.87c24-15.67,71.65-13.85,78.96-31.81
	c7.13-32.01-5.66-98.81-42.01-118.64C-48.1,632.19-5.19,518.27,101.56,536.98z"/>
</svg>
