
<svg xmlns="http://www.w3.org/2000/svg" viewBox="0 0 1024 1024"><path fill="#fff" d="M73.324 584.964C32.806 584.964 0 617.614 0 657.889v293.006c0 40.212 32.828 72.926 73.324 72.926h877.352c40.518 0 73.324-32.65 73.324-72.926V657.89c0-40.212-32.828-72.925-73.324-72.925-40.296 0-72.962 32.428-72.962 73.073v183.035c0 20.138-16.65 36.463-36.271 36.463H182.557c-20.032 0-36.271-16.568-36.271-36.463V658.037c0-40.357-33.066-73.073-72.962-73.073zm621.533-179.95v109.464c0 40.468 23.758 50.963 53.353 23.173l269.743-253.3c7.986-8.453 8.116-22.691.065-31.274L749.677 14.73c-30.276-26.892-54.82-15.972-54.82 24.695v109.633c-375.473-6.366-548.571 197.166-548.571 402.123 0 0 55.867-146.165 548.571-146.165z"/></svg>