<?xml version="1.0" standalone="no"?><!DOCTYPE svg PUBLIC "-//W3C//DTD SVG 1.1//EN" "http://www.w3.org/Graphics/SVG/1.1/DTD/svg11.dtd"><svg t="1658675396535" class="icon" viewBox="0 0 1024 1024" version="1.1" xmlns="http://www.w3.org/2000/svg" p-id="4205" data-spm-anchor-id="a313x.7781069.0.i5" xmlns:xlink="http://www.w3.org/1999/xlink" width="200" height="200"><defs><style type="text/css">@font-face { font-family: feedback-iconfont; src: url("//at.alicdn.com/t/font_1031158_u69w8yhxdu.woff2?t=1630033759944") format("woff2"), url("//at.alicdn.com/t/font_1031158_u69w8yhxdu.woff?t=1630033759944") format("woff"), url("//at.alicdn.com/t/font_1031158_u69w8yhxdu.ttf?t=1630033759944") format("truetype"); }
</style></defs><path d="M960.711582 372.46606l0 523.083429c0 36.684504-29.738301 66.423829-66.422805 66.423829L130.420375 961.973318c-36.684504 0-66.422805-29.738301-66.422805-66.423829L63.99757 131.682112c0-36.684504 29.738301-66.422805 66.422805-66.422805l523.083429 0 0-0.261966 0.261966 0.261966 30.127158 0 1.151219 1.152243 1.671059-1.670036L956.784132 334.808392l-1.671059 1.671059 5.598508 5.597485 0 30.127158 0.261966 0.261966L960.711582 372.46606zM695.018314 131.753743l0 116.169813c0 45.855374 37.173644 83.029018 83.029018 83.029018l116.169813 0L695.018314 131.753743zM919.197072 372.46606 736.532823 372.46606c-45.855374 0-83.029018-37.173644-83.029018-83.029018L653.503804 106.772792 155.329694 106.772792c-27.513634 0-49.817616 22.303982-49.817616 49.817616l0 714.050786c0 27.513634 22.303982 49.817616 49.817616 49.817616l714.050786 0c27.513634 0 49.817616-22.303982 49.817616-49.817616L919.198096 372.46606zM861.077374 845.73085l-49.817616 0c-4.585435 0-8.303106-3.714602-8.303106-8.30106l0-49.819662c0-4.582365 3.717671-8.30106 8.303106-8.30106l49.817616 0c4.585435 0 8.303106 3.718695 8.303106 8.30106l0 49.819662C869.38048 842.016249 865.662809 845.73085 861.077374 845.73085zM861.077374 704.58418l-49.817616 0c-4.585435 0-8.303106-3.718695-8.303106-8.305153l0-49.814546c0-4.586458 3.717671-8.305153 8.303106-8.305153l49.817616 0c4.585435 0 8.303106 3.718695 8.303106 8.305153l0 49.814546C869.38048 700.865485 865.662809 704.58418 861.077374 704.58418zM861.077374 563.434439l-49.817616 0c-4.585435 0-8.303106-3.718695-8.303106-8.305153l0-49.814546c0-4.586458 3.717671-8.305153 8.303106-8.305153l49.817616 0c4.585435 0 8.303106 3.718695 8.303106 8.305153l0 49.814546C869.38048 559.715745 865.662809 563.434439 861.077374 563.434439zM654.699026 535.981181 436.936397 670.177556c-7.795547 4.804423-17.503653 7.468089-27.588335 8.499581-2.730181 0.60989-5.634324 0.9967-8.705266 0.9967-3.207042 0-6.245238-0.406253-9.075703-1.067308-1.24741-0.140193-2.524496-0.101307-3.756557-0.296759L387.810536 348.922854c1.231037-0.195451 2.509147-0.156566 3.756557-0.296759 2.830465-0.662079 5.868661-1.067308 9.075703-1.067308 3.070942 0 5.976108 0.387833 8.705266 0.9967 10.084683 1.032516 19.792788 3.695159 27.588335 8.499581l217.761606 134.195352C674.742525 503.602749 674.742525 523.628852 654.699026 535.981181zM600.258113 502.43311l-173.951821-107.197464 0 236.761332 173.951821-107.197464C610.280374 518.622838 610.280374 508.609787 600.258113 502.43311zM213.449393 845.73085l-49.817616 0c-4.585435 0-8.303106-3.714602-8.303106-8.30106l0-49.819662c0-4.582365 3.717671-8.30106 8.303106-8.30106l49.817616 0c4.585435 0 8.303106 3.718695 8.303106 8.30106l0 49.819662C221.7525 842.016249 218.035852 845.73085 213.449393 845.73085zM213.449393 704.58418l-49.817616 0c-4.585435 0-8.303106-3.718695-8.303106-8.305153l0-49.814546c0-4.586458 3.717671-8.305153 8.303106-8.305153l49.817616 0c4.585435 0 8.303106 3.718695 8.303106 8.305153l0 49.814546C221.7525 700.865485 218.035852 704.58418 213.449393 704.58418zM213.449393 563.434439l-49.817616 0c-4.585435 0-8.303106-3.718695-8.303106-8.305153l0-49.814546c0-4.586458 3.717671-8.305153 8.303106-8.305153l49.817616 0c4.585435 0 8.303106 3.718695 8.303106 8.305153l0 49.814546C221.7525 559.715745 218.035852 563.434439 213.449393 563.434439zM213.449393 413.982616l-49.817616 0c-4.585435 0-8.303106-3.719718-8.303106-8.306176l0-49.814546c0-4.586458 3.717671-8.306176 8.303106-8.306176l49.817616 0c4.585435 0 8.303106 3.719718 8.303106 8.306176l0 49.814546C221.7525 410.262898 218.035852 413.982616 213.449393 413.982616zM213.449393 272.831852l-49.817616 0c-4.585435 0-8.303106-3.719718-8.303106-8.302083l0-49.818639c0-4.586458 3.717671-8.302083 8.303106-8.302083l49.817616 0c4.585435 0 8.303106 3.715625 8.303106 8.302083l0 49.818639C221.7525 269.112134 218.035852 272.831852 213.449393 272.831852z" p-id="4206" fill="#3eaf7c"></path></svg>