
<svg xmlns="http://www.w3.org/2000/svg" viewBox="0 0 1024 1024"><path fill="#3EA1FC" d="M510.05 1009.111a504.627 504.627 0 1 1 504.549-504.627 505.173 505.173 0 0 1-504.55 504.55zm0-980.153a475.526 475.526 0 1 0 475.448 475.526A476.072 476.072 0 0 0 510.05 28.958z"/><path fill="#3EA1FC" d="M694.33 913.148c184.672-88.552 273.847-237.178 267.45-446.035-22.236-344.61-439.013-482.938-533.026-268.698-44.315 196.218 223.602 174.451 329.24 320.503 94.403 133.1 73.182 264.484-63.663 394.23z"/><path fill="#3EA1FC" d="M321.634 96.445C136.962 184.996 47.787 333.7 54.184 542.479 76.42 887.09 493.197 1025.417 587.21 811.177c44.393-196.218-223.524-174.45-329.084-320.424-94.403-133.335-73.338-264.797 63.508-394.308z"/></svg>