
<svg xmlns="http://www.w3.org/2000/svg" viewBox="0 0 1024 1024"><path fill="#efc252" d="M1008.26 343.918L867.143 104.009a112.299 112.299 0 0 0-96.768-55.247H253.5a112.713 112.713 0 0 0-96.744 55.223L15.59 343.918a111.909 111.909 0 0 0 12.507 131.12L427.97 928.305a112.299 112.299 0 0 0 168.131 0l399.701-453.267a111.909 111.909 0 0 0 12.46-131.12zM767.523 453.754l-222.55 222.769a47.25 47.25 0 0 1-66.072 0l-222.55-222.77a46.714 46.714 0 1 1 66.073-66.071l189.001 189.635 189.416-189.635a46.714 46.714 0 1 1 66.072 66.072h.61z"/></svg>