
<svg xmlns="http://www.w3.org/2000/svg" viewBox="0 0 1024 1024"><path fill="#e72100" d="M514.2 41.4c84.5 0 168.9-.7 253.4.3 45.3.5 86.7 15.4 123.5 42.1 37.6 27.2 64.1 62.8 79.8 106.4 8.5 23.6 13 48 13 73.2 0 166.7 1.4 333.5-.6 500.2-.9 78.3-37.5 139.9-103.7 182.8-38 24.6-80 35.1-125.1 35.1-161.3-.2-322.7.7-484-.4-92.9-.6-161.5-43.8-204.2-126.5-15-29-22.2-60.5-22.2-93.2-.2-167-.8-333.9.3-500.9.4-66.8 28.2-122.4 78.9-166.3 25-21.6 53.7-36.7 85.5-44.9 17.4-4.5 35.6-7.4 53.5-7.6 84-.8 168-.3 251.9-.3zm411.3 690.2c.8-103.6-82.9-191.6-191.1-191.5-106.7.1-190.9 85.1-191.3 191.5-.3 104.8 85.7 190.7 190.2 191.3 105.9.6 192.9-86.2 192.2-191.3zM293.8 540.5c-107.7.2-186.9 85.9-191.2 181.9-5.1 114.4 87.4 200.7 191.1 200.5 102.9-.2 191.3-83 191.4-191 .1-105.9-84.3-190.9-191.3-191.4z"/></svg>