
<svg xmlns="http://www.w3.org/2000/svg" class="icon" viewBox="0 0 1024 1024"><path fill="#F2DC68" d="M0 413.6v-23.9C4.6 357 29.7 350.6 56 346c59.4-10.2 116.3-27.2 170.4-54.4C328.7 239.9 403.2 161 458.1 62c2.6-4.7 4.9-9.4 7.7-14 23.5-38.8 72.5-39.9 96.3-.9 15.6 25.6 29.3 52.1 46.1 77.1C689 245.3 802 318.8 943.3 350.5c9.7 2.2 19.4 5 29.1 7 29 5.8 48.4 20.5 50.8 52.1v12c-3.3 33.2-31.6 49.4-50.3 71.5-83.9 99.6-133.3 211.7-133.4 343.7 0 35.3 1.5 70.5 4.4 105.5 4 49.6-41.3 77.9-86.5 55.1-51.3-25.9-104.5-46.2-161.2-56.4-116.7-21-227.6-3.8-334 46.8-8.4 4-16.5 8.6-25.6 11.1-43.2 12.1-78.6-18.4-71.7-62.7 3-19 5.8-37.9 7.6-57.2 14-150.3-30.1-282-126.4-397.2-10.2-12.3-19.8-25.1-31.7-35.8-10-8.9-9.3-21.8-14.4-32.4zm0 0" class="selected" data-spm-anchor-id="a313x.7781069.0.i0"/><path fill="#9A6913" d="M258.4 501.4c8.9-3.8 12.4 3.1 18.2 4 6 1 13.3 8.5 17.5.7 3.4-6.2 5.4-14.9-1.8-22.1-5.8-5.7-13.7-11-11.3-23.6 12.1 16.7 22.6 20.5 39.4 4.8 17.1-15.9 45.4-9.3 62.6 9.4 15.9 17.3 17.2 44.3 3 62.3-15.7 19.9-43.2 28.9-62 14.8-22-16.2-39.6-38.5-65.6-50.3zm0 0"/><path fill="#9B6A14" d="M694.5 637.8c18 2.5 27.2 10.7 37.5 15.8 2.6 1.4 6.5 2.9 4.8 7.1-1.6 3.8-4.9 4-8.4 2.3-10.7-5.6-13.6 1.5-17 9.6-63.7 155.3-264.1 185-371.7 55.3-6.5-7.9-9.3-23-26.7-17.8-6 1.8-6.6-5.5-1.7-9.1 6-4.2 12.6-7.6 19.2-10.4 4.4-1.8 7.9-9.9 13.5-4.5 7.3 7-3 7.7-5.2 11.3-3.8 6.3 2 9.6 4.7 13.6 51.5 74.3 158 104.6 241.6 70 51.6-21.4 88.5-57.1 112.6-107 5.6-10.9 9-21.4-3.2-36.2zm0 0"/><path fill="#9C6D16" d="M680.1 568.9c-1.1-3.1-3-6.2-3.3-9.3-.8-7.5-4.5-10.1-11.8-10.1-6.8 0-9.2 3.2-10.7 9.2-1.3 5.4-1.8 11.5-7.4 15.7-4.9-10 8.1-21.8-6.1-29.2-19.9-10.5-12.3 19.1-26.5 17.1-1.8-10.4 14.9-23.6-1.6-31.2-10.2-4.7-16.7 15.9-29.9 9.2.1-.3 0-1 .3-1.5 17-19.1 32.1-27.6 58.6-9.1 20.3 14.2 47.8 9.1 68.2-9.4 7.9-7.1 12.1-7.9 18.1 2.1 5.3 8.9 16.5 12 26.9 18.9-10.7 2.7-17-1-23.1-4.4-5.6-3-10.2-9.1-17.1-1.8-6.1 6.3-3.2 12.1-.1 18.2 1.4 2.9 2.9 5.6 5.6 10.8-14.8-1.5-13.9-24.6-30.4-17.9-7.6 3.1-6.2 9.3-6.4 15 2.3 4 3.5 7.6-3.3 7.7zm0 0"/><path fill="#AE8527" d="M680.1 568.9c1.1-2.6 2.3-5.2 3.4-7.8 3.1 4.6 7.2 10.7 2.9 14.7-2.9 2.7-4.8-3.8-6.3-6.9zm0 0"/></svg>