<?xml version="1.0" encoding="utf-8"?>
<!-- Generator: Adobe Illustrator 26.2.1, SVG Export Plug-In . SVG Version: 6.00 Build 0)  -->
<svg version="1.1" id="图层_1" xmlns="http://www.w3.org/2000/svg" xmlns:xlink="http://www.w3.org/1999/xlink" x="0px" y="0px"
	 viewBox="0 0 1024 1024" style="enable-background:new 0 0 1024 1024;" xml:space="preserve">
<style type="text/css">
	.st0{fill:#E13636;}
</style>
<path class="st0" d="M942.38,80.94C860.77-0.22,735.77-0.22,510.95-0.22s-349.82,0-431.44,81.16S-2.1,286.83-2.1,510.85
	s0,348.56,81.62,429.9s206.61,81.16,431.44,81.16s349.82,0,431.44-81.16S1024,734.86,1024,510.85S1024,162.29,942.38,80.94
	L942.38,80.94z M781.5,782.21c-149.64,150-392.55,150.28-542.55,0.64S88.67,390.29,238.31,240.3s392.55-150.28,542.55-0.64
	c0.21,0.21,0.42,0.42,0.64,0.64C930.2,390.33,930.2,632.17,781.5,782.21z"/>
<path class="st0" d="M691.31,320.47c-34.56,6.73-57.13,40.21-50.4,74.77c1.22,6.27,3.37,12.31,6.39,17.94
	c7.24,14.82,10.94,31.12,10.82,47.62c0,2.16-0.54,6.31-0.99,10.46c-5.96,54.07-53.19,94.01-107.5,90.9
	c-35.07-1.45-66.84-21.11-83.78-51.86c-13.08-21.82-25.61-44.1-38.42-66.19c-18.04-30.66-35.26-61.41-53.12-91.9
	c-11.24-21.71-34.32-34.65-58.71-32.92c-35.13,1.42-62.46,31.06-61.04,66.19c0.43,10.7,3.56,21.13,9.09,30.3
	c24.05,42.09,48.25,84.17,72.6,126.26c39.86,68.99,79.45,138.16,119.58,207.42c11.64,21.93,35.47,34.55,60.15,31.83
	c22.3-1.41,42.2-14.52,52.31-34.45c63.07-110.38,126.35-220.47,189.84-330.25c7.8-12.9,10.98-28.07,9.02-43.02
	c-5.22-34.87-37.73-58.91-72.6-53.69C693.47,320.06,692.39,320.25,691.31,320.47z"/>
</svg>
