
<svg xmlns="http://www.w3.org/2000/svg" viewBox="0 0 1024 1024"><g fill="#a05a2c" stroke="#000" stroke-width="20"><path d="M912.04 588.46c0 234.52-183 424.62-408.77 424.62S94.49 822.96 94.49 588.46c0-234.52 183-424.62 408.77-424.62s408.78 190.13 408.78 424.62z"/><path d="M361.01 226.66c9.38-91.45-1.75-106.09-20.51-155.32 58.62 23.45 100.01 36.27 107.05 123.02 16.42-93.78 8.02-88.43-6.05-165.79 51.6 49.23 106.66 61.06 99.62 138.42 35.34-43.12 40.16-53.56 50-125.16 41.96 48.76 76.16 118.39 36.27 186.38"/></g><path d="M499.94 290.47C289.45 162.88 163.69 517.53 324.57 578c-269.36-28.76-149.45 273.63 69.39 345.89 59.36 19.61 139.4 13.28 226.83 2.89 249.13-29.64 364.5-564.6 75.09-395.69 160.29-241.13-102.6-304.39-195.93-240.62h-.01z" fill="#eaae85"/><path d="M480.17 568.5c8.64 25.03 4.53 47.12-9.18 49.34-13.71 2.21-31.81-16.31-40.44-41.34s-4.53-47.12 9.18-49.34c13.71-2.2 31.81 16.31 40.44 41.34z"/><path d="M252.31 683.68C335.37 757.9 518.42 706 754.4 607.19c9.28 214.19-189.12 421.8-502.09 76.47v.02z" fill="#fff" stroke="#000" stroke-width="20"/><path d="M516.62 568.5c-7.97 23.09-3.3 43.59 10.39 45.81 13.72 2.21 31.27-14.7 39.23-37.81 7.96-23.09 3.3-43.59-10.41-45.81-13.69-2.2-31.25 14.73-39.21 37.81z"/><g stroke="#000" stroke-width="20"><path d="M448.37 707.48l6.45 130.58m139.34-172.57l1.65 190.38M2126.47-890.31" fill="none"/><path d="M128.8,452.19c-139.58-59.67,5.56-279.62,120.34-186.33" fill="#a05a2c" stroke-linecap="round"/></g><path d="M154.44,402.55c-77.69-53.71,12.92-132.34,64.28-90.44" fill="#eaae85"/><path d="M884.51,450.28c126.99-81.33-25.23-293.9-134.5-180.25" fill="#a05a2c" stroke="#000" stroke-width="20" stroke-linecap="round"/><path d="M851.79,404.61c69.24-54.03,6.4-134.31-68.1-97.53" fill="#eaae85"/><g stroke-width="20" fill="#f01e07" stroke="#a05a2c"><circle cx="386" cy="417.71" r="56.31"/><circle cx="608.49" cy="417.71" r="56.31"/></g></svg>
