
<svg xmlns="http://www.w3.org/2000/svg" viewBox="0 0 1024 1024" xmlns:v="https://vecta.io/nano"><style><![CDATA[.r{enable-background:new}.s{opacity:.997}.t{opacity:.993}.u{opacity:.995}.v{opacity:.996}]]></style><g fill-rule="evenodd"><path d="M607.6 144.2c-3 3-5 7-6 12a27.25 27.25 0 0 0-6-12c-8.8 9.1-19.4 15.1-31.8 18-30.4 5-59.5 1.1-87.3-12-8.9-7.1-15.5-15.7-19.8-26 37.9-30.5 78.9-35.1 123-14 11.7 9.7 21 21 27.9 34z" fill="#84f5fe" class="r t"/><path d="M702.8 68.3c53.6-1.3 74.1 24 61.5 75.9-21.7 26.1-47.5 30.8-77.4 14-29.1-36.3-23.8-66.2 15.9-89.9z" fill="#68e8fe"/><path d="M456.8 124.2c4.3 10.2 10.9 18.9 19.8 26 27.8 13 56.9 17 87.3 12 12.4-2.9 23-8.9 31.8-18a27.25 27.25 0 0 1 6 12c.9-4.9 2.9-8.9 6-12 5.6 46.4-12.9 79.7-55.6 99.9-.4-2.5-1.8-4.5-4-6l31.8-24c-58.7 9.8-111-4.2-156.8-42-5.5 9.4-8.8 9.4-9.9 0 11.7-18.4 26.2-34.4 43.6-47.9z" fill="#58eefe"/><path d="M413.1 172.2c1.1 9.4 4.4 9.4 9.9 0 45.8 37.7 98 51.7 156.8 42l-31.8 24c2.2 1.5 3.5 3.5 4 6-32.3 14.2-64 29.5-95.2 46-18.5 13.3-34.4 29.3-47.6 48-2.6 2.7-5.3 2.7-7.9 0-8.5-11.2-13.1-23.8-13.9-38-7.7-46.6.9-89.2 25.7-128z" opacity=".974" fill="#35e8ff" class="r"/><path d="M706.8 268.1C640 287.6 579.2 318.9 524.2 362c-12.6 11.5-23.9 24.2-33.7 38-.8-6.2-2.8-11.6-6-16 .7-8.2 2.7-16.2 6-24l25.8-44c57.3-39.7 120.8-55.7 190.5-47.9z" opacity=".986" fill="#acfdfe" class="r"/><path d="M706.8 268.1c31 6.9 53.5 24.2 67.5 52-3.1 4.4-5.1 9.8-6 16-1-7.7-3-15.1-6-22-26.5-4.6-51.6-.6-75.4 12-41.5 27.8-77.2 61.8-107.2 101.9-4 1.3-6.6 4-7.9 8-64.3 43.1-93.4 25.8-87.3-52 3.1 4.4 5.1 9.8 6 16 9.9-13.8 21.1-26.4 33.7-38 55-43.1 115.8-74.4 182.6-93.9z" fill="#bdfefe" class="r s"/><path d="M349.6 316l-7.9-4c-25.3 12.7-51.8 16.7-79.4 12 .6 9.4 0 18.7-2 28-.8-6.2-2.8-11.6-6-16 5-55.1 32.8-73.1 83.3-53.9 8 9.9 12 21.2 12 33.9z" fill="#34f6fd"/><path d="M171 328c-22.3 30.2-47.5 58.8-75.4 85.9-20.5 18.3-44.3 30.3-71.4 36a48.57 48.57 0 0 0-6 14c-1.7-5-5-7.7-9.9-8 .9-5.2-.4-9.2-4-12v-48c32.4-80.2 88-102.8 166.7-67.9z" fill="#01c3e8"/><path d="M1016.4 392c-71.4 30.7-125.7 11.4-162.7-57.9 10.3-3.1 10.3-5.1 0-6 7.9-6.6 17.2-11.3 27.8-14C948.9 302 993.9 328 1016.4 392z" opacity=".999" fill="#6281f0" class="r"/><path d="M774.3 320c3.6 10.4.9 19.7-7.9 28-31.7 26.6-62.1 54.6-91.3 83.9-21.8 9.1-44.3 15.7-67.5 20-11.7-5.1-21-13.1-27.8-24 29.9-40.1 65.6-74.1 107.2-101.9 23.8-12.6 48.9-16.6 75.4-12 3 6.9 5 14.3 6 22 .8-6.2 2.7-11.5 5.9-16z" fill="#aef0fc"/><path d="M853.6 328c10.3.9 10.3 2.9 0 6 37 69.3 91.3 88.6 162.7 57.9 0 2.7 1.3 4 4 4v44c-21.7-3.1-43.5-1.8-65.5 4-63.9-5.5-106.9-36.1-129-91.9 7-11 16.2-19 27.8-24z" opacity=".992" fill="#5a7eef" class="r"/><path d="M171 328c20 10.8 34.5 26.8 43.7 48-2.1 5.2-7.4 7.8-15.9 8 .6 4.2-.1 8.2-2 12-22.7 22.2-45.8 44.2-69.5 65.9-30.6 15.7-62.4 29.7-95.2 42-8.6-15.3-16.6-31.3-23.8-48 5 .3 8.3 3 9.9 8 1.2-5.1 3.2-9.7 6-14 27.1-5.6 50.9-17.6 71.4-36 27.9-27.1 53.1-55.7 75.4-85.9z" fill="#00b4e9" class="r u"/><path d="M349.6 316l-21.8 59.9c-.5 19.1-3.1 37.8-7.9 55.9-42.5-17.7-64.3-49.6-65.5-95.9 3.1 4.4 5.1 9.8 6 16 2-9.2 2.6-18.6 2-28 27.6 4.7 54 .7 79.4-12 2.6 1.6 5.2 2.9 7.8 4.1z" opacity=".941" fill="#07e5fe" class="r"/><path d="M825.9 352c22.1 55.8 65.1 86.5 129 91.9 22-5.8 43.8-7.1 65.5-4v4c-5.5 15.1-12.1 29.7-19.8 44-58.7 10.7-112.9-2-162.7-38-14.2-15-28.8-29-43.7-42 8.6-20.1 19.1-38.7 31.7-55.9z" fill="#4f7aee" class="r v"/><path d="M214.7 376c9 16.8 17 34.2 23.8 52-9 1.1-10.3 5.1-4 12-24.3 15.8-46.8 33.8-67.5 53.9-28 16.8-57.1 31.4-87.3 44-10.5 2-21.1 2.7-31.8 2-8.3-10.3-13.6-22.3-15.9-36 32.9-12.3 64.6-26.3 95.2-42l69.5-65.9c1.9-3.8 2.6-7.8 2-12 8.6-.2 13.9-2.9 16-8z" opacity=".99" fill="#00a7e9" class="r"/><path d="M516.3 316l-25.8 44c-3.2 7.7-5.2 15.7-6 24-6.1 77.8 23 95.1 87.3 52-8.2 8.2-14.8 17.5-19.8 28l-35.7 48c-50.3-.7-100.6 0-150.8 2-3.8 5.7-7.1 11.7-9.9 18-1.9-3.8-2.6-7.8-2-12 28.3-59 64-112.9 107.2-161.8a274.95 274.95 0 0 1 55.5-42.2z" opacity=".994" fill="#0ef0fe" class="r"/><path d="M794.1 407.9c14.9 12.9 29.4 26.9 43.7 42 49.8 36 104.1 48.6 162.7 38-9.5 25.8-20.1 51.1-31.8 75.9-3.3-1.4-4.7-4-4-8-.3-5.7 1-11 4-16-75.8.8-138.6-27.2-188.5-83.9l-4 8c-1.6-.9-2.2-2.2-2-4 5.6-17.8 12.2-35.1 19.9-52z" fill="#4375ed"/><path d="M579.8 427.9c6.8 10.8 16.1 18.8 27.8 24-29.1 62.6-61.5 123.8-97.2 183.8-13.1 38.7-28.3 76.6-45.6 113.9 2.2 1.5 3.5 3.5 4 6-10.8 23.2-22.8 45.8-35.7 67.9-2.9.5-5.6-.1-7.9-2 10.5-45 23.1-89.6 37.7-133.9 28.6-64.4 58.4-128.3 89.3-191.8 3.5-10.1 3.5-20.8 0-32 5.1-10.4 11.7-19.8 19.8-28 1.2-3.9 3.8-6.6 7.8-7.9z" opacity=".992" fill="#02d5fc" class="r"/><path d="M675.1 431.9c-10.8 10.8-20 22.8-27.8 36-4-.3-7.3 1-9.9 4-49.8 65.7-91.5 136.3-125 211.8l-43.7 71.9c-.4-2.5-1.8-4.5-4-6a1126.69 1126.69 0 0 0 45.6-113.9c35.7-60 68.1-121.3 97.2-183.8 23.3-4.2 45.8-10.9 67.6-20z" fill="#04defd"/><path d="M964.8 555.8c-3.5 3-6.2 7-7.9 12-75.1 3.2-139.3-22.2-192.5-75.9-1.7 5-5 7.7-9.9 8 5.1-14.3 11.8-27.6 19.8-40-.3 1.8.4 3.1 2 4 1.3-2.7 2.6-5.3 4-8 49.9 56.7 112.7 84.7 188.5 83.9-3 5-4.3 10.3-4 16z" fill="#3a72eb"/><path d="M238.5 427.9l35.7 79.9c-5.7-.3-11 1-15.9 4-13.3 11-26.5 22.3-39.7 34-14.5-2.8-26.4 2.6-35.7 16-19.4 1.1-36.6 7.7-51.6 20-21.2 3.8-42.3 7.1-63.5 10-7.7-16.9-14.3-34.2-19.8-52 10.7.7 21.2 0 31.8-2 30.2-12.5 59.3-27.2 87.3-44 20.7-20.2 43.2-38.2 67.5-53.9-6.4-6.9-5.1-10.9 3.9-12z" opacity=".991" fill="#009be9" class="r"/><path d="M274.2 507.8l19.8 48c-10 12.2-23.2 18.2-39.7 18-13.6 15.3-30.8 21.9-51.6 20-18.1 15.5-39.3 22.1-63.5 20-17.7 11.1-36.2 15.8-55.6 14a214.1 214.1 0 0 0-15.9-36c21.2-2.9 42.3-6.2 63.5-10 15-12.2 32.2-18.9 51.6-20 9.3-13.4 21.3-18.7 35.7-16 13.2-11.7 26.4-23 39.7-34 5-2.9 10.3-4.3 16-4z" fill="#0092e9" class="r t"/><path d="M516.3 511.8c-23.5 35.3-46 71.3-67.5 107.9-45.1-14.4-91.4-19.8-138.9-16v-12l43.7-71.9c-.6 4.2.1 8.2 2 12 2.8-6.3 6.1-12.3 9.9-18 50.2-2 100.5-2.6 150.8-2z" fill="#03eefe" class="r t"/><path d="M964.8 555.8c-.7 4 .6 6.6 4 8L941 627.7c-72.4-5.9-136.5-32.5-192.5-79.9l-4-12c-2 8.2-6.6 13.5-13.9 16 9-16.8 17-34.2 23.8-52 5-.3 8.3-3 9.9-8 53.2 53.8 117.4 79.1 192.5 75.9 1.8-4.9 4.4-8.9 8-11.9z" fill="#306dea" class="r u"/><path d="M294.1 555.8a214.1 214.1 0 0 1 15.9 36v12c-7.6 8.6-14.2 17.9-19.8 28-1.9-4.8-5.8-7.4-11.9-8-14 1.7-25.9 7.7-35.7 18l-43.7 4c-14 7.7-28.5 14.4-43.7 20-18 1.3-35.2 2-51.6 2l-19.8-40c19.4 1.8 37.9-2.9 55.6-14 24.2 2.1 45.4-4.5 63.5-20 20.8 1.9 38-4.7 51.6-20 16.4.2 29.6-5.8 39.6-18z" fill="#008ce9" class="r s"/><path d="M683 535.8l31.8 48c7.7 26.1 19.6 50.1 35.7 71.9 11.8 29.2 27.7 55.8 47.6 79.9-45.1 1.6-88.7 10.9-131 28 0-2.7-1.3-4-4-4-18.5-28.6-34.4-58.6-47.6-89.9 18-50.2 40.5-94.8 67.5-133.9z" fill="#00cafd"/><path d="M647.3 467.9l7.9 16c-24.5 44.1-48.3 88.7-71.4 133.9 4 4.2 4.7 8.9 2 14-9.6 23.2-20.1 45.9-31.8 67.9-5.7 11.4-9 23.4-9.9 36l-31.8-52c33.5-75.5 75.2-146.1 125-211.8 2.7-3 6-4.4 10-4z" fill="#0192f3"/><path d="M941 627.7c-9.9 22-20.5 43.3-31.8 63.9-53.9.3-104.8-13.1-152.8-40-3 .3-5 1.6-6 4-16.1-21.8-28-45.8-35.7-71.9 7.3-9.4 12.6-20 15.9-32 7.3-2.5 11.9-7.8 13.9-16l4 12c55.9 47.5 120.1 74.1 192.5 80z" fill="#2469e9"/><path d="M448.8 619.7c-10.9 20.6-22.8 40.6-35.7 59.9-1.7 4.8-4.4 8.8-7.9 12-45.3-8-90.3-14.7-134.9-20l19.8-40c5.6-10 12.3-19.4 19.8-28 47.6-3.6 93.9 1.7 138.9 16.1z" fill="#00e9fe"/><path d="M290.1 631.7l-19.8 40c-11.2 14.6-20.5 30.6-27.8 48-41.4 38.6-81.1 37.2-119.1-4l-19.8-48c16.4 0 33.6-.7 51.6-2 15.1-5.6 29.7-12.3 43.7-20l43.7-4c9.8-10.3 21.7-16.2 35.7-18 5.9.6 9.9 3.3 11.8 8z" fill="#0086e8" class="r s"/><path d="M655.2 483.9c7.3 9.4 12.6 20 15.9 32-27.9 40.8-51.7 84.1-71.4 129.9 4.3 5.2 6.9 11.2 7.9 18l-33.7 87.9c-4.1 4.8-8.8 8.8-13.9 12-6.2-8.5-11.5-17.9-15.9-28 .9-12.6 4.2-24.6 9.9-36 11.6-22 22.2-44.7 31.8-67.9 2.7-5.1 2.1-9.8-2-14 23.1-45.3 46.9-89.9 71.4-133.9z" fill="#00a6f7"/><path d="M909.2 691.7c-.8 11-4.8 20.3-11.9 28-29.2 30.2-62.3 35.6-99.2 16-19.9-24.1-35.8-50.7-47.6-79.9.9-2.4 2.9-3.7 6-4 47.9 26.8 98.8 40.1 152.7 39.9z" fill="#1d67e8" class="r v"/><path d="M671.1 515.8c6.9 4.6 10.9 11.3 11.9 20-27 39.1-49.5 83.7-67.5 133.9 13.2 31.3 29.1 61.3 47.6 89.9-10.4 5-19.6 11.6-27.8 20l-4-8c-8.5 12.4-19.1 23-31.8 32l-4 8c3.5 10.5 6.1 21.2 7.9 32-16.6-25.3-31.1-52-43.7-79.9 5.1-3.2 9.8-7.2 13.9-12l33.7-87.9c-1-6.7-3.7-12.7-7.9-18 20-45.9 43.8-89.2 71.7-130z" opacity=".989" fill="#00b2fa" class="r"/><path d="M270.2 671.7c44.6 5.3 89.6 12 134.9 20-8.2 17.8-17.5 35.2-27.8 52-42.8-10.9-86.5-16.9-131-18-2.2-1.5-3.5-3.5-4-6 7.4-17.4 16.7-33.4 27.9-48z" fill="#00e3fc"/><path d="M393.3 891.5c-5.1 11.8-13 21.1-23.8 28-8.5.4-9.8-2.2-4-8-10.1-5.7-10.1-11.7 0-18-8.3-14.3-8.3-28.9 0-44-2.4-22.4-2.4-43.7 0-63.9-2.2-2.9-4.8-4.9-7.9-6 7.6-11.3 14.2-23.3 19.8-36 10.3-16.8 19.6-34.1 27.8-52 3.6-3.2 6.2-7.2 7.9-12 10.2 1.4 17.5-3.9 21.8-16-1.9 20.3-7.8 39.6-17.9 57.9 1.8 1.7 3.1 3.7 4 6-9.5 21.5-13.5 43.5-11.9 65.9-1.9 11.6-5.9 22.2-11.9 32 3 10.3 4.3 20.3 4 30-2.5 10.7-6.4 20.6-11.9 30 2.2 1.6 3.5 3.6 4 6.1z" fill="#00baf7"/><path d="M552 396.8c3.5 11.2 3.5 21.9 0 32.1a5980.36 5980.36 0 0 0-90 192.3c-14.7 44.4-27.4 89.1-38 134.2 2.4 1.9 5 2.5 8 2-12.4 23.5-25.7 46.2-40 68.1-.4-2.5-1.8-4.5-4-6 5.5-9.3 9.5-19.4 12-30.1.3-9.7-1-19.8-4-30.1 6.1-9.8 10.1-20.4 12-32.1-1.6-22.5 2.4-44.5 12-66.1-.8-2.3-2.2-4.4-4-6 10.1-18.4 16.1-37.7 18-58.1-4.4 12.1-11.7 17.4-22 16 13-19.4 25-39.4 36-60.1 21.7-36.7 44.3-72.8 68-108.2l36-47.9z" fill="#00c6f9"/><path d="M897.3 719.6c-9.5 25.7-20.1 51.1-31.8 75.9-3.5.5-6.1-.8-7.9-4l7.9-16-6-4c-13.9 8.6-28.4 9.9-43.7 4-42.7 2.2-84.4 10.2-125 24-8.9-11.2-16.8-23.1-23.8-36 42.2-17 85.9-26.4 131-28 37 19.7 70.1 14.4 99.3-15.9z" fill="#01c4fd" class="r u"/><path d="M123.4 715.6c38 41.2 77.7 42.6 119.1 4 .4 2.5 1.8 4.5 4 6 44.5 1.1 88.2 7.1 131 18-5.6 12.6-12.2 24.6-19.8 36l-15.9 24c-52.4-9.3-105.3-14-158.8-14-5.8-2.5-11.1-5.9-15.9-10-2.8 7.7-6.8 9.1-11.9 4-11.6-21.9-22.2-44.6-31.8-68z" fill="#00d9fc"/><path d="M865.6 795.6c-7 18.1-14.9 35.4-23.8 52-4.9-6-4.9-12 0-18-8.9-5.5-17.5-11.5-25.8-18-46 35.4-87.6 31.4-125-12 40.6-13.8 82.3-21.8 125-24 15.2 5.9 29.8 4.6 43.7-4l6 4-7.9 16c1.6 3.2 4.3 4.5 7.8 4z" fill="#00bdfc" class="r s"/><path d="M341.7 803.6c-39.7 52.2-85.3 57.5-136.9 16-6.5 4.8-13.7 8.2-21.8 10 5.9 7 4.6 11.7-4 14-9-19.5-17-39.5-23.8-59.9 5.1 5.1 9.1 3.7 11.9-4 4.8 4.1 10.1 7.5 15.9 10 53.4-.1 106.3 4.5 158.7 13.9z" opacity=".987" fill="#00cffa" class="r"/><path d="M357.6 779.6c3.1 1.1 5.8 3.1 7.9 6-2.4 20.3-2.4 41.6 0 63.9-8.3 15-8.3 29.7 0 44-10.1 6.2-10.1 12.2 0 18-5.9 5.8-4.6 8.4 4 8-12.7 13.8-28.6 22.4-47.6 26-46.2 8.9-83.9-5.1-113.1-42-11.8-19.1-21.7-39.1-29.8-59.9 8.5-2.3 9.9-7 4-14 8.1-1.8 15.4-5.1 21.8-10 51.6 41.6 97.3 36.2 136.9-16l15.9-24z" fill="#01b2f6" class="r v"/><path d="M663.1 759.6c2.6 0 4 1.3 4 4 7 12.8 14.9 24.8 23.8 36 37.4 43.4 79 47.4 125 12 8.3 6.5 16.9 12.5 25.8 18-4.9 6-4.9 11.9 0 18-7.7 33-24.9 59.7-51.6 79.9-.6-9.1-5.9-17.1-15.9-24l-13.9-28c-11.3-7-21.9-15-31.8-24-2.4-3.8-1.8-7.1 2-10-10.1-3-20.1-6.4-29.8-10-28.2 12.4-56.7 24.4-85.3 36l-11.9-24c-1.8-10.8-4.5-21.5-7.9-32 1.3-2.7 2.6-5.3 4-8 12.7-8.9 23.3-19.6 31.8-32 1.3 2.7 2.6 5.3 4 8 8.1-8.3 17.4-14.9 27.7-19.9z" fill="#00a7f9"/><path d="M790.1 927.4c-77.8 39-136 19-174.6-59.9l85.3-36c9.7 3.6 19.6 6.9 29.8 10-3.8 2.9-4.4 6.2-2 10 9.9 9 20.5 17 31.8 24l13.9 28c10 6.8 15.3 14.8 15.8 23.9z" opacity=".999" fill="#009ef7" class="r"/></g></svg>