
<svg xmlns="http://www.w3.org/2000/svg" viewBox="0 0 1024 1024" xmlns:v="https://vecta.io/nano"><path fill="#ccc" d="M975.36 35.84H33.28l-2.56 903.68c2.56 8.704 7.68 19.968 18.432 28.16 3.584 2.56 13.824 9.216 31.744 10.24 29.184 1.536 370.688 2.56 838.144 2.56 6.144-.512 22.016-3.072 37.376-15.36 13.824-11.264 19.456-25.088 21.504-30.72l-2.56-898.56z"/><path fill="#096" d="M82.944 997.888c-6.144-33.28-11.264-89.6 3.584-156.672 13.824-63.488 40.448-110.08 59.392-137.728l176.128 290.816-239.104 3.584z"/><path fill="#c33" d="M322.048 997.888L146.944 702.464c19.968-30.72 60.416-82.944 128.512-125.44 22.528-14.336 89.088-52.736 184.32-62.976 133.12-13.824 232.96 37.376 261.12 52.736C822.272 623.104 872.448 704 891.392 738.816l-344.576 3.072c-38.4-2.048-68.608 4.096-88.064 9.728-11.264 3.072-31.232 9.216-54.784 23.04-14.336 8.704-37.376 22.528-56.832 49.664-19.968 28.16-25.6 54.784-29.184 72.704-8.704 42.496-2.048 78.336 4.096 100.864z"/><path d="M549.376 743.936c11.264 2.048 88.064 18.432 130.56 92.672 43.52 75.776 16.384 150.528 12.288 160.768l241.152 1.024c5.632-29.696 9.728-73.728 2.048-125.44-8.704-58.88-29.184-104.448-44.544-132.096l-341.504 3.072zm95.232 253.44L364.544 998.4c-5.632-10.752-28.672-59.392-10.24-115.712 2.56-7.68 13.824-40.448 47.104-68.096 56.832-47.616 125.952-36.352 131.584-35.328 61.952 11.264 95.232 55.296 102.912 66.048 8.704 12.288 33.28 48.128 27.648 96.768-2.56 25.088-12.288 44.032-18.944 55.296z" fill="#fc3"/><path fill="#fff" d="M389.632 118.784c-24.576 4.096-41.472 22.016-41.472 41.984 0 18.944 15.872 35.84 38.912 40.96l269.312 1.536c25.088-6.144 41.472-25.088 39.936-45.568-1.536-18.432-17.408-34.816-39.936-39.936l-266.752 1.024z"/></svg>