<?xml version="1.0" standalone="no"?><!DOCTYPE svg PUBLIC "-//W3C//DTD SVG 1.1//EN" "http://www.w3.org/Graphics/SVG/1.1/DTD/svg11.dtd"><svg t="1658675682108" class="icon" viewBox="0 0 1024 1024" version="1.1" xmlns="http://www.w3.org/2000/svg" p-id="13802" xmlns:xlink="http://www.w3.org/1999/xlink" width="200" height="200"><defs><style type="text/css">@font-face { font-family: feedback-iconfont; src: url("//at.alicdn.com/t/font_1031158_u69w8yhxdu.woff2?t=1630033759944") format("woff2"), url("//at.alicdn.com/t/font_1031158_u69w8yhxdu.woff?t=1630033759944") format("woff"), url("//at.alicdn.com/t/font_1031158_u69w8yhxdu.ttf?t=1630033759944") format("truetype"); }
</style></defs><path d="M167.1168 322.1504c-27.8528-0.4096-55.9104-0.4096-83.7632 0-5.12 0.2048-10.0352 1.4336-14.5408 3.8912-13.312 6.9632-20.8896 22.1184-18.0224 37.0688 2.8672 14.7456 15.36 26.2144 30.3104 27.8528 11.0592 1.024 22.1184 1.2288 33.1776 1.2288 10.8544 0 21.7088-0.4096 32.3584-0.6144 6.7584-0.2048 13.5168-0.4096 20.48-0.4096 9.6256-0.2048 18.6368-4.5056 24.7808-11.6736 2.8672-3.2768 5.12-6.9632 6.5536-11.264 3.6864-10.24 2.048-21.7088-4.096-30.72-6.144-9.4208-16.384-14.9504-27.2384-15.36zM472.2688 116.9408c0.2048 5.12 1.4336 10.0352 3.6864 14.5408l0.2048 0.2048c6.144 11.264 17.8176 18.0224 30.3104 18.0224 2.2528 0 4.3008-0.2048 6.5536-0.6144 14.7456-2.8672 26.0096-14.7456 27.8528-29.696v-0.2048c2.4576-29.2864 2.4576-58.9824 0-88.2688-1.8432-16.9984-15.9744-30.3104-33.1776-30.9248H505.2416c-12.9024 0.6144-24.3712 8.192-29.9008 19.6608-1.6384 3.4816-2.6624 7.168-3.072 11.264-1.8432 21.9136-1.2288 44.032-0.6144 65.3312l0.6144 20.6848zM198.4512 146.0224c13.5168 16.384 29.0816 31.1296 44.032 45.2608 5.5296 5.12 11.264 10.4448 16.7936 15.7696 3.8912 3.6864 8.6016 6.3488 13.7216 7.9872 3.2768 1.024 6.3488 1.4336 9.6256 1.4336 6.5536 0 13.1072-1.8432 18.6368-5.5296 8.3968-5.3248 14.1312-14.1312 15.5648-23.9616v-0.2048c1.024-9.216-1.4336-18.432-7.168-25.8048l-0.2048-0.2048c-17.2032-21.0944-37.4784-39.7312-57.1392-57.7536l-4.3008-4.096-0.2048-0.2048c-6.144-5.3248-13.5168-8.192-21.504-8.6016h-0.2048c-13.1072-0.2048-25.6 7.168-31.5392 19.0464-5.7344 11.8784-4.3008 26.2144 3.8912 36.864zM802.2016 94.0032c-4.7104-2.4576-10.0352-3.6864-15.1552-3.8912-2.6624 0-5.3248 0.2048-7.9872 0.8192-5.12 1.2288-9.8304 3.4816-13.9264 6.5536l-0.2048 0.2048c-16.5888 13.5168-31.3344 29.2864-45.6704 44.4416-5.12 5.3248-10.24 10.8544-15.5648 16.384-6.3488 6.7584-9.8304 15.9744-9.4208 25.3952 0.8192 12.9024 8.6016 24.1664 20.2752 29.4912 4.5056 2.048 9.4208 3.072 14.336 3.072 7.5776 0 15.1552-2.4576 21.2992-7.3728 16.5888-13.5168 31.3344-29.2864 45.6704-44.6464 4.9152-5.3248 10.24-10.8544 15.36-16.1792 3.2768-3.2768 5.5296-7.3728 7.3728-11.8784 5.9392-16.384-0.8192-34.2016-16.384-42.3936zM662.1184 262.7584c-18.6368-12.0832-38.5024-21.9136-59.1872-29.4912-28.4672-10.24-58.368-15.9744-88.6784-16.7936-7.5776-0.2048-7.5776-0.2048-15.36 0-35.4304 0.8192-69.8368 8.3968-102.4 22.1184-27.0336 11.4688-52.224 26.8288-74.752 45.8752-16.9984 14.1312-32.3584 30.3104-45.8752 47.7184-25.8048 33.1776-45.2608 72.704-56.32 114.0736-15.1552 57.5488-14.7456 118.3744 1.2288 175.9232 12.6976 45.4656 35.84 88.4736 66.9696 124.3136l2.8672 3.072c2.4576 2.8672 3.4816 3.8912 7.5776 8.192l5.7344 5.7344c5.5296 5.5296 10.8544 10.6496 15.36 16.384 12.9024 16.9984 20.2752 37.0688 21.0944 58.1632 0.2048 5.12 0 10.0352 0 15.36v3.072c-14.336 0.4096-29.9008 1.024-47.104 1.6384h-0.4096c-8.8064 0.8192-16.9984 4.9152-22.9376 11.4688-6.7584 7.7824-9.6256 18.0224-7.9872 28.0576 1.6384 10.0352 7.3728 19.0464 16.1792 24.3712l0.2048 0.2048c4.5056 2.6624 9.6256 4.096 14.7456 4.7104h0.4096c36.2496 1.4336 73.1136 2.4576 109.1584 3.072 2.8672 27.4432 16.1792 52.224 37.4784 69.8368 18.8416 15.5648 42.5984 23.9616 66.7648 23.9616 5.3248 0 10.4448-0.4096 15.7696-1.2288 33.5872-5.12 63.6928-27.4432 78.4384-58.1632 5.12-10.8544 8.3968-22.3232 9.8304-34.4064 35.2256-0.6144 71.8848-1.6384 109.1584-3.072h0.4096c8.8064-0.8192 16.9984-4.9152 23.1424-11.4688 6.7584-7.7824 9.6256-18.0224 7.9872-28.0576-1.6384-10.0352-7.3728-19.0464-16.1792-24.3712-4.3008-2.4576-9.0112-4.096-14.7456-4.7104h-0.6144c-15.7696-0.6144-31.3344-1.024-46.6944-1.6384 0-5.9392 0.2048-11.8784 0.2048-17.6128 0.8192-21.0944 7.3728-40.5504 19.6608-57.9584 2.4576-3.072 4.5056-5.7344 6.5536-7.9872 3.072-3.2768 6.3488-6.3488 9.4208-9.6256 3.072-3.072 6.144-6.144 9.216-9.4208 9.0112-9.6256 17.408-19.8656 24.9856-30.3104 31.5392-44.032 52.0192-95.6416 58.5728-149.504 5.7344-45.2608 2.048-92.16-10.4448-135.7824-20.6848-71.68-66.7648-134.144-129.4336-175.7184z m-131.2768 683.008c-13.7216 12.288-34.6112 12.288-48.3328 0-4.3008-4.096-7.5776-9.216-9.6256-14.7456 22.528 0.2048 45.056 0.2048 67.584 0-2.048 5.7344-5.3248 10.6496-9.6256 14.7456zM730.7264 585.728c-8.8064 43.4176-29.0816 83.968-58.368 117.3504-4.096 4.5056-4.096 4.5056-8.3968 9.0112l-1.2288 1.2288c-8.6016 8.6016-17.408 17.408-24.9856 27.648-20.48 28.2624-31.9488 61.6448-32.9728 96.6656l-0.2048 17.8176c-32.3584-0.6144-65.1264-0.8192-97.6896-0.8192s-65.1264 0.2048-97.4848 0.8192V840.2944c-0.4096-11.264-1.4336-21.2992-3.2768-30.72-6.5536-31.744-21.504-61.0304-43.8272-84.7872l-7.3728-7.3728c-2.4576-2.2528-4.9152-4.7104-7.168-7.168-31.5392-33.1776-53.6576-74.1376-63.6928-118.784-8.6016-37.6832-8.8064-77.6192-0.6144-115.3024 7.168-33.3824 20.6848-64.3072 40.3456-92.3648 17.6128-25.1904 39.5264-46.4896 65.1264-63.0784 22.1184-14.336 46.4896-24.576 72.2944-30.3104 41.5744-9.216 84.3776-5.7344 123.904 9.8304 30.1056 11.8784 56.7296 29.696 79.2576 52.8384 31.744 32.5632 54.0672 73.1136 64.7168 117.3504 8.6016 37.2736 9.216 77.4144 1.6384 115.3024zM965.632 333.824c-6.144-7.3728-15.1552-11.6736-24.7808-11.8784-27.648-0.4096-55.7056-0.4096-83.7632 0-5.12 0.2048-10.0352 1.4336-14.5408 3.8912-13.312 6.9632-20.8896 22.1184-18.0224 37.0688 2.8672 14.7456 15.36 26.2144 30.3104 27.8528 11.0592 1.024 22.1184 1.2288 33.1776 1.2288 10.8544 0 21.7088-0.4096 32.3584-0.6144 6.7584-0.2048 13.5168-0.4096 20.48-0.4096h0.2048c13.1072-0.6144 24.7808-8.6016 29.9008-20.8896 5.3248-12.0832 3.2768-26.0096-5.3248-36.2496z" fill="#3eaf7c" p-id="13803"></path><path d="M535.9616 454.0416l47.3088 33.1776-50.7904 74.5472-60.416-74.3424c-6.144-7.5776-15.5648-12.0832-25.3952-12.0832-9.8304 0-19.2512 4.5056-25.3952 12.288l-67.584 83.968c-11.264 14.1312-9.216 34.816 4.9152 46.08s34.816 9.216 46.08-4.9152l42.1888-52.4288 62.464 77.0048c6.144 7.7824 15.5648 12.0832 25.3952 12.0832h1.4336c10.4448-0.4096 19.8656-5.7344 25.8048-14.336l75.1616-110.1824 44.2368 31.1296-19.8656-126.3616-125.5424 24.3712z" fill="#3eaf7c" p-id="13804"></path></svg>