<?xml version="1.0" standalone="no"?><!DOCTYPE svg PUBLIC "-//W3C//DTD SVG 1.1//EN" "http://www.w3.org/Graphics/SVG/1.1/DTD/svg11.dtd"><svg t="1658675520221" class="icon" viewBox="0 0 1024 1024" version="1.1" xmlns="http://www.w3.org/2000/svg" p-id="6377" xmlns:xlink="http://www.w3.org/1999/xlink" width="200" height="200"><defs><style type="text/css">@font-face { font-family: feedback-iconfont; src: url("//at.alicdn.com/t/font_1031158_u69w8yhxdu.woff2?t=1630033759944") format("woff2"), url("//at.alicdn.com/t/font_1031158_u69w8yhxdu.woff?t=1630033759944") format("woff"), url("//at.alicdn.com/t/font_1031158_u69w8yhxdu.ttf?t=1630033759944") format("truetype"); }
</style></defs><path d="M887.466667 204.8H182.613333C153.6 204.8 129.706667 180.906667 129.706667 151.893333s23.893333-51.2 52.906666-51.2H887.466667c18.773333 0 32.426667-15.36 32.426666-32.426666s-13.653333-34.133333-32.426666-34.133334H182.613333c-66.56 0-119.466667 52.906667-119.466666 117.76v738.986667c0 54.613333 44.373333 98.986667 98.986666 98.986667h201.386667c18.773333 0 32.426667-15.36 32.426667-32.426667s-15.36-32.426667-32.426667-32.426667H162.133333c-18.773333 0-32.426667-15.36-32.426666-32.426666V257.706667c15.36 8.533333 34.133333 11.946667 52.906666 11.946666h672.426667v93.866667c0 18.773333 15.36 32.426667 32.426667 32.426667 18.773333 0 32.426667-15.36 32.426666-32.426667v-126.293333c0-17.066667-13.653333-32.426667-32.426666-32.426667z" fill="#3eaf7c" p-id="6378"></path><path d="M878.933333 116.053333H197.973333c-18.773333 0-32.426667 15.36-32.426666 32.426667s15.36 32.426667 32.426666 32.426667h680.96c18.773333 0 32.426667-15.36 32.426667-32.426667s-13.653333-32.426667-32.426667-32.426667z" fill="#3eaf7c" p-id="6379"></path><path d="M687.786667 443.733333c-150.186667 0-273.066667 122.88-273.066667 273.066667s122.88 273.066667 273.066667 273.066667 273.066667-122.88 273.066666-273.066667-122.88-273.066667-273.066666-273.066667z m109.226666 334.506667l-85.333333 85.333333c-1.706667 1.706667-5.12 5.12-8.533333 5.12l-1.706667 1.706667c-1.706667 1.706667-3.413333 1.706667-6.826667 1.706667l-1.706666 1.706666h-8.533334l-3.413333-1.706666c-1.706667 0-3.413333 0-6.826667-1.706667-5.12-1.706667-8.533333-5.12-11.946666-8.533333l-85.333334-85.333334c-6.826667-6.826667-10.24-15.36-10.24-23.893333s3.413333-17.066667 10.24-23.893333c13.653333-13.653333 34.133333-13.653333 47.786667 0l27.306667 27.306666v-163.84c0-18.773333 15.36-34.133333 34.133333-34.133333s34.133333 15.36 34.133333 34.133333v163.84l27.306667-27.306666c13.653333-13.653333 34.133333-13.653333 47.786667 0 6.826667 6.826667 10.24 15.36 10.24 23.893333s-1.706667 20.48-8.533334 25.6z" fill="#3eaf7c" p-id="6380"></path></svg>